<?xml version="1.0" encoding="UTF-8"?>
<svg version="1.1" xmlns="http://www.w3.org/2000/svg" width="128" height="128">
<path d="M0 0 C1.26473648 -0.00960754 2.52947296 -0.01921509 3.83253479 -0.02911377 C5.19947121 -0.03396058 6.56640975 -0.0382397 7.93334961 -0.04199219 C8.62769041 -0.04481956 9.32203121 -0.04764694 10.03741264 -0.05056 C13.7065862 -0.06549277 17.37572097 -0.07476151 21.04492188 -0.07910156 C24.82667723 -0.08460022 28.6080751 -0.10867399 32.38971806 -0.13707352 C35.30741922 -0.15571671 38.22503415 -0.16090622 41.14278984 -0.16243744 C42.53701179 -0.16545701 43.93123248 -0.17346204 45.32539558 -0.18662262 C47.27545127 -0.20372826 49.22565606 -0.19995152 51.17578125 -0.1953125 C52.28353409 -0.19895813 53.39128693 -0.20260376 54.53260803 -0.20635986 C57.91552858 0.20934422 59.79001319 1.16073694 62.52319336 3.16113281 C63.94567519 5.42836494 64.6107497 7.61589523 65.52319336 10.16113281 C66.18319336 10.16113281 66.84319336 10.16113281 67.52319336 10.16113281 C67.52319336 11.15113281 67.52319336 12.14113281 67.52319336 13.16113281 C67.85319336 13.16113281 68.18319336 13.16113281 68.52319336 13.16113281 C68.52319336 26.49446615 68.52319336 39.82779948 68.52319336 53.16113281 C68.19319336 53.16113281 67.86319336 53.16113281 67.52319336 53.16113281 C67.52319336 58.11113281 67.52319336 63.06113281 67.52319336 68.16113281 C67.85319336 68.16113281 68.18319336 68.16113281 68.52319336 68.16113281 C68.52319336 71.13113281 68.52319336 74.10113281 68.52319336 77.16113281 C67.53319336 77.65613281 67.53319336 77.65613281 66.52319336 78.16113281 C65.86764217 80.68846516 65.86764217 80.68846516 65.52319336 83.16113281 C64.03819336 83.65613281 64.03819336 83.65613281 62.52319336 84.16113281 C62.44069336 84.77988281 62.35819336 85.39863281 62.27319336 86.03613281 C61.52319336 88.16113281 61.52319336 88.16113281 58.87646484 89.7668457 C52.92442955 92.14455907 46.42675189 91.61270744 40.12084961 91.59472656 C38.71512095 91.59929503 37.30939451 91.60460257 35.90367126 91.61061096 C32.96596164 91.61951522 30.02852425 91.61714997 27.09082031 91.60717773 C23.34394148 91.59569204 19.59800569 91.61590578 15.85125065 91.64509487 C12.95053738 91.66352564 10.05004727 91.66315086 7.14929008 91.65745735 C5.76871862 91.65730497 4.38813121 91.66327999 3.00761604 91.67574883 C-4.82466841 91.73653416 -10.90718579 91.69329858 -17.47680664 87.16113281 C-18.17960622 85.84648648 -18.85004681 84.51368386 -19.47680664 83.16113281 C-20.01305664 82.72800781 -20.54930664 82.29488281 -21.10180664 81.84863281 C-23.28993362 79.16320424 -22.66516854 76.48885971 -22.47680664 73.16113281 C-23.13680664 73.16113281 -23.79680664 73.16113281 -24.47680664 73.16113281 C-24.47680664 54.68113281 -24.47680664 36.20113281 -24.47680664 17.16113281 C-23.81680664 17.16113281 -23.15680664 17.16113281 -22.47680664 17.16113281 C-22.28344727 16.56945312 -22.09008789 15.97777344 -21.89086914 15.36816406 C-21.35413415 13.73935936 -20.80955777 12.11312225 -20.25805664 10.48925781 C-19.67269063 8.74486711 -19.12707986 6.98705005 -18.60180664 5.22363281 C-17.47680664 3.16113281 -17.47680664 3.16113281 -15.22680664 1.91113281 C-10.136308 0.522815 -5.26785558 0.03244688 0 0 Z M66.52319336 16.16113281 C66.52319336 17.81113281 66.52319336 19.46113281 66.52319336 21.16113281 C66.85319336 21.16113281 67.18319336 21.16113281 67.52319336 21.16113281 C67.52319336 19.51113281 67.52319336 17.86113281 67.52319336 16.16113281 C67.19319336 16.16113281 66.86319336 16.16113281 66.52319336 16.16113281 Z M66.52319336 22.16113281 C67.52319336 25.16113281 67.52319336 25.16113281 67.52319336 25.16113281 Z M-23.47680664 27.16113281 C-23.47680664 28.81113281 -23.47680664 30.46113281 -23.47680664 32.16113281 C-23.14680664 32.16113281 -22.81680664 32.16113281 -22.47680664 32.16113281 C-22.47680664 30.51113281 -22.47680664 28.86113281 -22.47680664 27.16113281 C-22.80680664 27.16113281 -23.13680664 27.16113281 -23.47680664 27.16113281 Z M66.52319336 34.16113281 C66.52319336 37.79113281 66.52319336 41.42113281 66.52319336 45.16113281 C66.85319336 45.16113281 67.18319336 45.16113281 67.52319336 45.16113281 C67.52319336 41.53113281 67.52319336 37.90113281 67.52319336 34.16113281 C67.19319336 34.16113281 66.86319336 34.16113281 66.52319336 34.16113281 Z M-23.47680664 39.16113281 C-23.47680664 45.43113281 -23.47680664 51.70113281 -23.47680664 58.16113281 C-23.14680664 58.16113281 -22.81680664 58.16113281 -22.47680664 58.16113281 C-22.47680664 51.89113281 -22.47680664 45.62113281 -22.47680664 39.16113281 C-22.80680664 39.16113281 -23.13680664 39.16113281 -23.47680664 39.16113281 Z M66.52319336 46.16113281 C67.52319336 49.16113281 67.52319336 49.16113281 67.52319336 49.16113281 Z M66.52319336 70.16113281 C67.52319336 73.16113281 67.52319336 73.16113281 67.52319336 73.16113281 Z M-6.47680664 89.16113281 C-6.47680664 89.49113281 -6.47680664 89.82113281 -6.47680664 90.16113281 C11.34319336 90.16113281 29.16319336 90.16113281 47.52319336 90.16113281 C47.52319336 89.83113281 47.52319336 89.50113281 47.52319336 89.16113281 C29.70319336 89.16113281 11.88319336 89.16113281 -6.47680664 89.16113281 Z " fill="#30559D" transform="translate(41.476806640625,18.8388671875)"/>
<path d="M0 0 C0.09920549 5.15944873 0.17162646 10.31833689 0.21972656 15.47851562 C0.2397871 17.23219479 0.26704251 18.98580753 0.30175781 20.73925781 C0.35052302 23.26644318 0.37302392 25.79274091 0.390625 28.3203125 C0.41127014 29.09867462 0.43191528 29.87703674 0.45318604 30.6789856 C0.45531081 35.88545587 -0.35740794 39.00730045 -4 43 C-10.26786863 46.95642546 -16.93149162 46.45107769 -24.16015625 46.43359375 C-25.42339218 46.4388356 -26.68662811 46.44407745 -27.98814392 46.44947815 C-30.65200248 46.45588697 -33.31499957 46.45602507 -35.97875977 46.44604492 C-39.38060157 46.43453673 -42.78140813 46.45481053 -46.18311405 46.48396206 C-49.44629963 46.50678128 -52.70940962 46.49985582 -55.97265625 46.49609375 C-57.79628441 46.51294472 -57.79628441 46.51294472 -59.65675354 46.53013611 C-70.38433398 46.4417169 -70.38433398 46.4417169 -75 42 C-78.94839454 37.40611595 -79.55568906 33.63127472 -79.390625 27.7578125 C-79.38496521 26.98944061 -79.37930542 26.22106873 -79.37347412 25.42941284 C-79.35122173 22.99395379 -79.30105041 20.56000843 -79.25 18.125 C-79.22992042 16.4661672 -79.2116722 14.80731116 -79.1953125 13.1484375 C-79.15139406 9.09838201 -79.08244763 5.04944694 -79 1 C-76.69 1.33 -74.38 1.66 -72 2 C-72 3.98 -72 5.96 -72 8 C-69.58239124 7.88573491 -67.16652782 7.75900339 -64.75 7.625 C-64.06808594 7.5940625 -63.38617188 7.563125 -62.68359375 7.53125 C-58.94760921 7.31361983 -56.24809531 6.83619802 -53 5 C-46.70281124 4.437751 -46.70281124 4.437751 -44.125 6.5 C-40.75416511 8.87941286 -37.00711959 8.40225911 -33 8 C-32.34 7.67 -31.68 7.34 -31 7 C-29.28766312 7.0870204 -27.57824594 7.24097162 -25.875 7.4375 C-24.96492188 7.53933594 -24.05484375 7.64117187 -23.1171875 7.74609375 C-22.41851562 7.82988281 -21.71984375 7.91367188 -21 8 C-20.67 6.35 -20.34 4.7 -20 3 C-18.02 3 -16.04 3 -14 3 C-14 4.65 -14 6.3 -14 8 C-11.03 8 -8.06 8 -5 8 C-5 5.69 -5 3.38 -5 1 C-2 0 -2 0 0 0 Z " fill="#073B88" transform="translate(103,58)"/>
<path d="M0 0 C1.26473648 -0.00960754 2.52947296 -0.01921509 3.83253479 -0.02911377 C5.19947121 -0.03396058 6.56640975 -0.0382397 7.93334961 -0.04199219 C8.62769041 -0.04481956 9.32203121 -0.04764694 10.03741264 -0.05056 C13.7065862 -0.06549277 17.37572097 -0.07476151 21.04492188 -0.07910156 C24.82667723 -0.08460022 28.6080751 -0.10867399 32.38971806 -0.13707352 C35.30741922 -0.15571671 38.22503415 -0.16090622 41.14278984 -0.16243744 C42.53701179 -0.16545701 43.93123248 -0.17346204 45.32539558 -0.18662262 C47.27545127 -0.20372826 49.22565606 -0.19995152 51.17578125 -0.1953125 C52.28353409 -0.19895813 53.39128693 -0.20260376 54.53260803 -0.20635986 C57.91552858 0.20934422 59.79001319 1.16073694 62.52319336 3.16113281 C63.94567519 5.42836494 64.6107497 7.61589523 65.52319336 10.16113281 C66.18319336 10.16113281 66.84319336 10.16113281 67.52319336 10.16113281 C67.52319336 11.15113281 67.52319336 12.14113281 67.52319336 13.16113281 C67.85319336 13.16113281 68.18319336 13.16113281 68.52319336 13.16113281 C68.52319336 26.49446615 68.52319336 39.82779948 68.52319336 53.16113281 C68.19319336 53.16113281 67.86319336 53.16113281 67.52319336 53.16113281 C67.52319336 58.11113281 67.52319336 63.06113281 67.52319336 68.16113281 C67.85319336 68.16113281 68.18319336 68.16113281 68.52319336 68.16113281 C68.52319336 71.13113281 68.52319336 74.10113281 68.52319336 77.16113281 C67.53319336 77.65613281 67.53319336 77.65613281 66.52319336 78.16113281 C65.86764217 80.68846516 65.86764217 80.68846516 65.52319336 83.16113281 C64.03819336 83.65613281 64.03819336 83.65613281 62.52319336 84.16113281 C62.44069336 84.77988281 62.35819336 85.39863281 62.27319336 86.03613281 C61.52319336 88.16113281 61.52319336 88.16113281 58.87646484 89.7668457 C52.92442955 92.14455907 46.42675189 91.61270744 40.12084961 91.59472656 C38.71512095 91.59929503 37.30939451 91.60460257 35.90367126 91.61061096 C32.96596164 91.61951522 30.02852425 91.61714997 27.09082031 91.60717773 C23.34394148 91.59569204 19.59800569 91.61590578 15.85125065 91.64509487 C12.95053738 91.66352564 10.05004727 91.66315086 7.14929008 91.65745735 C5.76871862 91.65730497 4.38813121 91.66327999 3.00761604 91.67574883 C-4.82466841 91.73653416 -10.90718579 91.69329858 -17.47680664 87.16113281 C-18.17960622 85.84648648 -18.85004681 84.51368386 -19.47680664 83.16113281 C-20.01305664 82.72800781 -20.54930664 82.29488281 -21.10180664 81.84863281 C-23.28993362 79.16320424 -22.66516854 76.48885971 -22.47680664 73.16113281 C-23.13680664 73.16113281 -23.79680664 73.16113281 -24.47680664 73.16113281 C-24.47680664 54.68113281 -24.47680664 36.20113281 -24.47680664 17.16113281 C-23.81680664 17.16113281 -23.15680664 17.16113281 -22.47680664 17.16113281 C-22.28344727 16.56945312 -22.09008789 15.97777344 -21.89086914 15.36816406 C-21.35413415 13.73935936 -20.80955777 12.11312225 -20.25805664 10.48925781 C-19.67269063 8.74486711 -19.12707986 6.98705005 -18.60180664 5.22363281 C-17.47680664 3.16113281 -17.47680664 3.16113281 -15.22680664 1.91113281 C-10.136308 0.522815 -5.26785558 0.03244688 0 0 Z M-14.78930664 10.66113281 C-17.35720299 14.4654237 -17.61066426 17.33737439 -17.65380859 21.82250977 C-17.66664383 22.98414139 -17.67947906 24.14577301 -17.69270325 25.34260559 C-17.70009018 26.59885239 -17.70747711 27.85509918 -17.71508789 29.14941406 C-17.72315964 30.44050583 -17.73123138 31.7315976 -17.73954773 33.06181335 C-17.75456051 35.79633451 -17.76440521 38.53082983 -17.77197266 41.26538086 C-17.78302955 44.75915735 -17.81742636 48.25229561 -17.85714436 51.74584675 C-17.88965693 55.08867651 -17.89409298 58.43143843 -17.90258789 61.77441406 C-17.92009598 63.02458817 -17.93760406 64.27476227 -17.9556427 65.56282043 C-18.01330117 74.13242778 -18.01330117 74.13242778 -13.47680664 81.16113281 C-7.95955641 86.46069863 -1.6927503 85.74051325 5.51538086 85.69238281 C7.40524216 85.69812317 7.40524216 85.69812317 9.33328247 85.70397949 C11.99496764 85.70669821 14.65517686 85.70136713 17.31665039 85.68261719 C20.70828326 85.65987363 24.09864654 85.67292903 27.49023247 85.69690704 C30.74865894 85.71494191 34.00693772 85.70226516 37.26538086 85.69238281 C39.07823074 85.7045282 39.07823074 85.7045282 40.92770386 85.71691895 C47.50845747 85.64421306 53.24993382 85.45177873 58.52319336 81.16113281 C63.68701337 75.0615493 63.10496163 68.49138336 63.05444336 60.78222656 C63.05827026 59.49679459 63.06209717 58.21136261 63.06604004 56.88697815 C63.07191247 54.17616378 63.06344508 51.46587935 63.04467773 48.75512695 C63.0218652 45.29271335 63.03503801 41.83153865 63.05896759 38.36917019 C63.07695091 35.0484247 63.06433713 31.72800717 63.05444336 28.40722656 C63.06254028 27.16960068 63.07063721 25.93197479 63.07897949 24.65684509 C63.04654429 16.14658198 63.04654429 16.14658198 58.52319336 9.16113281 C52.9727973 3.78488659 46.50899316 4.59924255 39.24194336 4.66503906 C37.95509644 4.66358383 36.66824951 4.6621286 35.34240723 4.66062927 C32.62560427 4.65924899 29.90933162 4.67173968 27.19262695 4.69458008 C23.72249393 4.72296458 20.25324108 4.7202229 16.78304291 4.70748997 C13.4567521 4.6988348 10.13071937 4.71398979 6.80444336 4.72753906 C4.94329895 4.7231356 4.94329895 4.7231356 3.04455566 4.71864319 C-4.30048556 4.79886135 -9.55372048 5.00103967 -14.78930664 10.66113281 Z M66.52319336 16.16113281 C66.52319336 17.81113281 66.52319336 19.46113281 66.52319336 21.16113281 C66.85319336 21.16113281 67.18319336 21.16113281 67.52319336 21.16113281 C67.52319336 19.51113281 67.52319336 17.86113281 67.52319336 16.16113281 C67.19319336 16.16113281 66.86319336 16.16113281 66.52319336 16.16113281 Z M66.52319336 22.16113281 C67.52319336 25.16113281 67.52319336 25.16113281 67.52319336 25.16113281 Z M-23.47680664 27.16113281 C-23.47680664 28.81113281 -23.47680664 30.46113281 -23.47680664 32.16113281 C-23.14680664 32.16113281 -22.81680664 32.16113281 -22.47680664 32.16113281 C-22.47680664 30.51113281 -22.47680664 28.86113281 -22.47680664 27.16113281 C-22.80680664 27.16113281 -23.13680664 27.16113281 -23.47680664 27.16113281 Z M66.52319336 34.16113281 C66.52319336 37.79113281 66.52319336 41.42113281 66.52319336 45.16113281 C66.85319336 45.16113281 67.18319336 45.16113281 67.52319336 45.16113281 C67.52319336 41.53113281 67.52319336 37.90113281 67.52319336 34.16113281 C67.19319336 34.16113281 66.86319336 34.16113281 66.52319336 34.16113281 Z M-23.47680664 39.16113281 C-23.47680664 45.43113281 -23.47680664 51.70113281 -23.47680664 58.16113281 C-23.14680664 58.16113281 -22.81680664 58.16113281 -22.47680664 58.16113281 C-22.47680664 51.89113281 -22.47680664 45.62113281 -22.47680664 39.16113281 C-22.80680664 39.16113281 -23.13680664 39.16113281 -23.47680664 39.16113281 Z M66.52319336 46.16113281 C67.52319336 49.16113281 67.52319336 49.16113281 67.52319336 49.16113281 Z M66.52319336 70.16113281 C67.52319336 73.16113281 67.52319336 73.16113281 67.52319336 73.16113281 Z M-6.47680664 89.16113281 C-6.47680664 89.49113281 -6.47680664 89.82113281 -6.47680664 90.16113281 C11.34319336 90.16113281 29.16319336 90.16113281 47.52319336 90.16113281 C47.52319336 89.83113281 47.52319336 89.50113281 47.52319336 89.16113281 C29.70319336 89.16113281 11.88319336 89.16113281 -6.47680664 89.16113281 Z " fill="#D4D3D6" transform="translate(41.476806640625,18.8388671875)"/>
<path d="M0 0 C0.66 0 1.32 0 2 0 C2.12375 0.94875 2.2475 1.8975 2.375 2.875 C2.71687177 6.08667191 2.71687177 6.08667191 5 8 C6 9 6 9 6.0625 12.0625 C6.041875 13.031875 6.02125 14.00125 6 15 C5.67 15 5.34 15 5 15 C5 19.95 5 24.9 5 30 C5.33 30 5.66 30 6 30 C6 32.97 6 35.94 6 39 C5.01 39.495 5.01 39.495 4 40 C3.34444881 42.52733235 3.34444881 42.52733235 3 45 C1.515 45.495 1.515 45.495 0 46 C-0.0825 46.61875 -0.165 47.2375 -0.25 47.875 C-1 50 -1 50 -3.64672852 51.60571289 C-9.59876381 53.98342626 -16.09644147 53.45157463 -22.40234375 53.43359375 C-23.80807241 53.43816222 -25.21379885 53.44346976 -26.61952209 53.44947815 C-29.55723172 53.45838241 -32.49466911 53.45601716 -35.43237305 53.44604492 C-39.17925188 53.43455922 -42.92518767 53.45477297 -46.67194271 53.48396206 C-49.57265598 53.50239282 -52.47314609 53.50201805 -55.37390327 53.49632454 C-56.75447474 53.49617216 -58.13506215 53.50214717 -59.51557732 53.51461601 C-67.34786177 53.57540135 -73.43037914 53.53216576 -80 49 C-80.70505 47.68655921 -81.37553396 46.35361161 -82 45 C-82.53238281 44.52949219 -83.06476563 44.05898437 -83.61328125 43.57421875 C-85.58599447 41.33477248 -85.30157965 39.74054425 -85.1875 36.8125 C-85.16042969 35.91144531 -85.13335937 35.01039062 -85.10546875 34.08203125 C-85.07066406 33.39496094 -85.03585938 32.70789063 -85 32 C-83 33.375 -83 33.375 -81 35 C-81 35.66 -81 36.32 -81 37 C-80.34 37 -79.68 37 -79 37 C-78.401875 37.928125 -77.80375 38.85625 -77.1875 39.8125 C-74.89857123 43.14779621 -73.57469559 44.25958569 -70 46 C-67.21573088 46.45534392 -67.21573088 46.45534392 -64.23510742 46.40405273 C-63.100103 46.41673691 -61.96509857 46.42942108 -60.79570007 46.44248962 C-59.57792374 46.43955399 -58.3601474 46.43661835 -57.10546875 46.43359375 C-55.21348503 46.44145653 -55.21348503 46.44145653 -53.28327942 46.44947815 C-50.61586263 46.45589881 -47.94930208 46.45600332 -45.28198242 46.44604492 C-41.88251926 46.43458321 -38.48409925 46.45472811 -35.08477306 46.48396206 C-31.82083422 46.50684962 -28.55696895 46.49985099 -25.29296875 46.49609375 C-23.47541328 46.51294472 -23.47541328 46.51294472 -21.62113953 46.53013611 C-15.06544061 46.47640016 -9.25276104 46.30530794 -4 42 C-0.66907305 37.39430445 -0.53457964 33.02022321 -0.48828125 27.5390625 C-0.46135445 26.3532106 -0.46135445 26.3532106 -0.43388367 25.1434021 C-0.38003294 22.63732109 -0.34596719 20.13142773 -0.3125 17.625 C-0.27930452 15.91794278 -0.24481281 14.21091024 -0.20898438 12.50390625 C-0.12432148 8.33607347 -0.05739093 4.1682939 0 0 Z M4 32 C5 35 5 35 5 35 Z M-69 51 C-69 51.33 -69 51.66 -69 52 C-51.18 52 -33.36 52 -15 52 C-15 51.67 -15 51.34 -15 51 C-32.82 51 -50.64 51 -69 51 Z " fill="#CBCBCD" transform="translate(104,57)"/>
<path d="M0 0 C1.34427702 0.01458289 2.68847688 0.05587334 4.03125 0.12109375 C5.04638672 0.12979492 5.04638672 0.12979492 6.08203125 0.13867188 C9.7368495 0.22878081 11.42491132 0.48770129 14.53125 2.55859375 C14.90625 5.49609375 14.90625 5.49609375 14.53125 8.55859375 C13.7578125 9.26048828 13.7578125 9.26048828 12.96875 9.9765625 C12.494375 10.49863281 12.02 11.02070312 11.53125 11.55859375 C11.57425518 13.69611606 11.57425518 13.69611606 12.15625 15.93359375 C12.52734375 18.33203125 12.52734375 18.33203125 12.53125 20.55859375 C10.36778764 23.36524762 8.68318199 24.98262775 5.53125 26.55859375 C2.97967345 26.63026725 0.45652029 26.65167817 -2.09375 26.62109375 C-2.80015625 26.61658203 -3.5065625 26.61207031 -4.234375 26.60742188 C-5.97920275 26.5956325 -7.723987 26.57769699 -9.46875 26.55859375 C-8.96664817 22.79961515 -8.4517233 19.14363391 -7.40625 15.49609375 C-6.70996117 12.88248786 -6.47701302 11.13717982 -6.53125 8.37109375 C-6.41969906 3.35130123 -5.09740556 0.82086598 0 0 Z " fill="#F0F2F6" transform="translate(40.46875,39.44140625)"/>
<path d="M0 0 C3.2578125 -0.29296875 3.2578125 -0.29296875 7.125 -0.1875 C10.528125 -0.0946875 10.528125 -0.0946875 14 0 C14 8.58 14 17.16 14 26 C11.36 26 8.72 26 6 26 C6 24.35 6 22.7 6 21 C4.02 21 2.04 21 0 21 C-0.33 22.65 -0.66 24.3 -1 26 C-4.3 26 -7.6 26 -11 26 C-10.43410156 24.84242187 -9.86820312 23.68484375 -9.28515625 22.4921875 C-8.54387127 20.95331741 -7.80300806 19.4142441 -7.0625 17.875 C-6.68931641 17.11445312 -6.31613281 16.35390625 -5.93164062 15.5703125 C-3.90109895 11.32629746 -2.66166073 7.69430877 -2 3 C-1.34 2.01 -0.68 1.02 0 0 Z " fill="#F1F4F7" transform="translate(83,40)"/>
<path d="M0 0 C0.99 0.66 1.98 1.32 3 2 C2.38722388 4.96175123 1.74627478 6.38058783 0 9 C-2.5766503 9.21214273 -5.0132295 8.99464652 -7.58984375 8.8125 C-10.04917712 8.78775312 -10.04917712 8.78775312 -11.79296875 10.33984375 C-13.49193402 12.67660828 -13.43323075 14.18400012 -13 17 C-9.75073878 19.16617415 -9.4014758 19.21335669 -5.8125 18.625 C-4.554375 18.41875 -3.29625 18.2125 -2 18 C-3.05875074 21.40312738 -4.00902154 24.01353231 -6 27 C-9.85546616 28.01294325 -13.54197774 27.67599214 -17.1484375 26.00390625 C-20.10579452 23.87340211 -21.72041897 22.18343205 -22.5703125 18.5859375 C-22.82510826 12.96344446 -21.86103514 9.25703874 -18 5 C-12.76513191 -0.36289475 -7.31759787 -1.10696146 0 0 Z " fill="#F3F5F7" transform="translate(76,40)"/>
<path d="M0 0 C1.98 0 3.96 0 6 0 C5 3 5 3 2.34863281 4.66479492 C-3.65672489 6.99810798 -10.23856587 6.40918187 -16.578125 6.36328125 C-17.99582926 6.36276194 -19.41353424 6.36328238 -20.83123779 6.36479187 C-23.78994615 6.36470252 -26.74837989 6.35434537 -29.70703125 6.33618164 C-33.49900338 6.31341225 -37.29057783 6.31296929 -41.08259964 6.31969929 C-44.00453224 6.32303867 -46.9263741 6.31641118 -49.84828949 6.30657005 C-51.2469307 6.30272345 -52.645582 6.3015676 -54.0442276 6.3031559 C-55.99467743 6.30352653 -57.94511389 6.2894306 -59.89550781 6.2746582 C-61.00468567 6.27005081 -62.11386353 6.26544342 -63.25665283 6.26069641 C-66 6 -66 6 -69 4 C-69.33 3.34 -69.66 2.68 -70 2 C-46.9 2 -23.8 2 0 2 C0 1.34 0 0.68 0 0 Z M-63 4 C-63 4.33 -63 4.66 -63 5 C-45.18 5 -27.36 5 -9 5 C-9 4.67 -9 4.34 -9 4 C-26.82 4 -44.64 4 -63 4 Z " fill="#D1CCCC" transform="translate(98,104)"/>
<path d="M0 0 C0.66 0 1.32 0 2 0 C2 1.65 2 3.3 2 5 C2.78375 4.95875 3.5675 4.9175 4.375 4.875 C7 5 7 5 9 7 C8.80882285 9.99510867 8.42426865 12.25129061 6.9375 14.875 C3.73943927 16.73193849 0.64481003 16.17925295 -3 16 C-3.45496035 10.23716896 -1.79099852 5.39431697 0 0 Z " fill="#D6DEE8" transform="translate(66,72)"/>
<path d="M0 0 C1.32 0.99 2.64 1.98 4 3 C4 3.66 4 4.32 4 5 C4.66 5 5.32 5 6 5 C6.53625 5.9075 7.0725 6.815 7.625 7.75 C10.12846522 11.78229894 13.72940751 13.23786232 18 15 C15.04742973 16.96838018 13.39514085 17.39061574 10 18 C9.34 18.33 8.68 18.66 8 19 C4.56977646 16.53727541 2.72527393 15.20658881 2 11 C1.34 10.67 0.68 10.34 0 10 C0 6.7 0 3.4 0 0 Z " fill="#CCCCD0" transform="translate(19,89)"/>
<path d="M0 0 C0.66 0 1.32 0 2 0 C2 0.66 2 1.32 2 2 C3.65 1.34 5.3 0.68 7 0 C5.68 5.61 4.36 11.22 3 17 C2.01 17 1.02 17 0 17 C-0.33 16.34 -0.66 15.68 -1 15 C-1.99 15.33 -2.98 15.66 -4 16 C-3.88490339 14.58249437 -3.75746342 13.16598831 -3.625 11.75 C-3.55539063 10.96109375 -3.48578125 10.1721875 -3.4140625 9.359375 C-2.9811378 6.89252104 -2.18552878 5.1900608 -1 3 C-0.67 2.01 -0.34 1.02 0 0 Z " fill="#6281AF" transform="translate(80,72)"/>
<path d="M0 0 C1 1 1 1 1.375 4.3125 C1 8 1 8 -1.1875 10.5 C-4 12 -4 12 -6.75 11.8125 C-9 11 -9 11 -10 10 C-9.54767184 3.89356984 -9.54767184 3.89356984 -7.8125 1.0625 C-5.16412068 -0.48999822 -3.00380186 -0.26120016 0 0 Z " fill="#D6DEE7" transform="translate(60,77)"/>
<path d="M0 0 C0.66 0 1.32 0 2 0 C2.12375 0.94875 2.2475 1.8975 2.375 2.875 C2.71687177 6.08667191 2.71687177 6.08667191 5 8 C6 9 6 9 6.0625 12.0625 C6.041875 13.031875 6.02125 14.00125 6 15 C5.67 14.01 5.34 13.02 5 12 C4.34 12 3.68 12 3 12 C2.67 20.25 2.34 28.5 2 37 C0.515 37.495 0.515 37.495 -1 38 C-0.67 25.46 -0.34 12.92 0 0 Z " fill="#C3C6CA" transform="translate(104,57)"/>
<path d="M0 0 C4.95 0 9.9 0 15 0 C14.67 3.63 14.34 7.26 14 11 C13.34 11 12.68 11 12 11 C12.33 8.03 12.66 5.06 13 2 C8.67137075 3.58116476 8.67137075 3.58116476 7.75 7.625 C7.5025 8.73875 7.255 9.8525 7 11 C6.34 11 5.68 11 5 11 C5.33 8.03 5.66 5.06 6 2 C1.67137075 3.58116476 1.67137075 3.58116476 0.75 7.625 C0.5025 8.73875 0.255 9.8525 0 11 C-0.66 11 -1.32 11 -2 11 C-1.34 7.37 -0.68 3.74 0 0 Z " fill="#D5DDE6" transform="translate(33,77)"/>
<path d="M0 0 C2.37846457 3.56769686 2.40104096 6.36507331 2.5625 10.5 C2.77753643 15.82483159 2.77753643 15.82483159 4 21 C4.06740865 22.56118428 4.08514456 24.1250252 4.0625 25.6875 C4.05347656 26.49574219 4.04445313 27.30398437 4.03515625 28.13671875 C4.02355469 28.75160156 4.01195313 29.36648437 4 30 C3.01 30 2.02 30 1 30 C-0.40912096 27.18175808 -0.11183553 24.82748718 -0.09765625 21.6796875 C-0.09443359 20.42285156 -0.09121094 19.16601562 -0.08789062 17.87109375 C-0.07951172 16.55238281 -0.07113281 15.23367187 -0.0625 13.875 C-0.05748489 12.53515789 -0.05292201 11.195314 -0.04882812 9.85546875 C-0.03701086 6.57026794 -0.02053617 3.28515603 0 0 Z M2 23 C3 26 3 26 3 26 Z " fill="#D7D6D6" transform="translate(106,66)"/>
<path d="M0 0 C1 1 1 1 1.0625 3.5625 C1.041875 4.366875 1.02125 5.17125 1 6 C-1.97 6 -4.94 6 -8 6 C-7.67 6.99 -7.34 7.98 -7 9 C-5.35 9.33 -3.7 9.66 -2 10 C-2 10.33 -2 10.66 -2 11 C-4.33294775 11.04241723 -6.66702567 11.04092937 -9 11 C-9.33 10.67 -9.66 10.34 -10 10 C-9.54767184 3.89356984 -9.54767184 3.89356984 -7.8125 1.0625 C-5.16412068 -0.48999822 -3.00380186 -0.26120016 0 0 Z " fill="#DDE4EB" transform="translate(96,77)"/>
<path d="M0 0 C19.14 0 38.28 0 58 0 C58 0.33 58 0.66 58 1 C38.86 1 19.72 1 0 1 C0 0.67 0 0.34 0 0 Z " fill="#FFFFFF" transform="translate(35,17)"/>
<path d="M0 0 C0.99 0 1.98 0 3 0 C3 0.99 3 1.98 3 3 C3.33 3 3.66 3 4 3 C4 6.96 4 10.92 4 15 C2.66666667 15 1.33333333 15 0 15 C-0.12375 13.9275 -0.2475 12.855 -0.375 11.75 C-0.89643936 8.62136385 -1.40088254 6.66519576 -3 4 C-2.01 3.67 -1.02 3.34 0 3 C0 2.01 0 1.02 0 0 Z M2 6 C2 7.65 2 9.3 2 11 C2.33 11 2.66 11 3 11 C3 9.35 3 7.7 3 6 C2.67 6 2.34 6 2 6 Z " fill="#D4D2D2" transform="translate(106,29)"/>
<path d="M0 0 C2.625 -0.1875 2.625 -0.1875 5 0 C4.67 2.31 4.34 4.62 4 7 C2.35 7.33 0.7 7.66 -1 8 C-1.625 5.6875 -1.625 5.6875 -2 3 C-1.34 2.01 -0.68 1.02 0 0 Z " fill="#11418A" transform="translate(54,79)"/>
<path d="M0 0 C1.32 0 2.64 0 4 0 C3.67 2.31 3.34 4.62 3 7 C1.35 7.33 -0.3 7.66 -2 8 C-2.125 5.125 -2.125 5.125 -2 2 C-1.34 1.34 -0.68 0.68 0 0 Z " fill="#0D3D88" transform="translate(68,79)"/>
<path d="M0 0 C8.25 0.33 16.5 0.66 25 1 C25 1.33 25 1.66 25 2 C19.06 2 13.12 2 7 2 C7 2.66 7 3.32 7 4 C4.03 3.505 4.03 3.505 1 3 C0.67 2.01 0.34 1.02 0 0 Z " fill="#C0BABC" transform="translate(28,106)"/>
<path d="M0 0 C0.33 0.66 0.66 1.32 1 2 C1.78375 1.95875 2.5675 1.9175 3.375 1.875 C6 2 6 2 8 4 C7.625 7.125 7.625 7.125 7 10 C6.01 10.33 5.02 10.66 4 11 C4.33 8.69 4.66 6.38 5 4 C3.35 4.33 1.7 4.66 0 5 C-0.33 4.34 -0.66 3.68 -1 3 C-0.67 2.01 -0.34 1.02 0 0 Z " fill="#C0CCDB" transform="translate(67,75)"/>
<path d="M0 0 C0.66 0.33 1.32 0.66 2 1 C0.68 5.95 -0.64 10.9 -2 16 C-2.66 16 -3.32 16 -4 16 C-3.71515154 14.26969709 -3.42180062 12.54079286 -3.125 10.8125 C-2.96257812 9.84957031 -2.80015625 8.88664062 -2.6328125 7.89453125 C-2.01960483 5.08967396 -1.14333657 2.62775253 0 0 Z " fill="#D2DAE5" transform="translate(85,72)"/>
<path d="M0 0 C0.99 0 1.98 0 3 0 C3 1.98 3 3.96 3 6 C1.02 6.66 -0.96 7.32 -3 8 C-2.25 2.25 -2.25 2.25 0 0 Z " fill="#13438B" transform="translate(36,79)"/>
<path d="M0 0 C0.66 0.33 1.32 0.66 2 1 C1.67 1.66 1.34 2.32 1 3 C0.92948311 4.64445394 0.91574906 6.29167854 0.9375 7.9375 C0.94652344 8.81277344 0.95554688 9.68804687 0.96484375 10.58984375 C0.97644531 11.38519531 0.98804688 12.18054688 1 13 C1 13.99 1 14.98 1 16 C-0.32 15.34 -1.64 14.68 -3 14 C-2.67 13.34 -2.34 12.68 -2 12 C-1.95653201 10.00047242 -1.960008 7.99960012 -2 6 C-2 2 -2 2 0 0 Z " fill="#3B5E9F" transform="translate(54,48)"/>
<path d="M0 0 C1.32 0.99 2.64 1.98 4 3 C4 3.66 4 4.32 4 5 C4.66 5.33 5.32 5.66 6 6 C5.67 6.66 5.34 7.32 5 8 C4.34 8 3.68 8 3 8 C2.67 8.99 2.34 9.98 2 11 C1.34 10.67 0.68 10.34 0 10 C0 6.7 0 3.4 0 0 Z " fill="#B7B6C2" transform="translate(19,89)"/>
<path d="M0 0 C-0.33 3.63 -0.66 7.26 -1 11 C-1.66 11 -2.32 11 -3 11 C-2.67 8.03 -2.34 5.06 -2 2 C-3.32 2.33 -4.64 2.66 -6 3 C-6.33 2.34 -6.66 1.68 -7 1 C-5 0 -5 0 0 0 Z " fill="#D0D9E3" transform="translate(48,77)"/>
<path d="M0 0 C2.06240906 3.09361358 2.38991902 4.46698546 2.75 8.0625 C2.84796875 8.94035156 2.9459375 9.81820312 3.046875 10.72265625 C3 13 3 13 1 15 C-0.44207941 12.11584117 -0.09394887 9.58278472 -0.0625 6.375 C-0.05347656 5.18648438 -0.04445313 3.99796875 -0.03515625 2.7734375 C-0.02355469 1.85820313 -0.01195313 0.94296875 0 0 Z " fill="#D0CFCF" transform="translate(106,66)"/>
<path d="M0 0 C1.32 0 2.64 0 4 0 C5.60080151 4.00200378 4.29279692 7.04556236 3 11 C2.34 11 1.68 11 1 11 C1.33 7.7 1.66 4.4 2 1 C1.34 0.67 0.68 0.34 0 0 Z " fill="#DDE3EB" transform="translate(37,77)"/>
<path d="M0 0 C0.66 0.33 1.32 0.66 2 1 C1.01 1.33 0.02 1.66 -1 2 C-0.67 2.99 -0.34 3.98 0 5 C-1.3125 7 -1.3125 7 -3 9 C-3.66 9.99 -4.32 10.98 -5 12 C-6.27350058 8.98990772 -5.99687398 7.99218495 -4.75 4.875 C-3 2 -3 2 0 0 Z " fill="#D9DDDE" transform="translate(27,20)"/>
<path d="M0 0 C1.98 0 3.96 0 6 0 C5 3 5 3 3.15234375 3.94921875 C2.42144531 4.19285156 1.69054687 4.43648438 0.9375 4.6875 C-0.16271484 5.06455078 -0.16271484 5.06455078 -1.28515625 5.44921875 C-1.85105469 5.63097656 -2.41695313 5.81273438 -3 6 C-3 5.01 -3 4.02 -3 3 C-2.01 2.67 -1.02 2.34 0 2 C0 1.34 0 0.68 0 0 Z " fill="#B38EAA" transform="translate(98,104)"/>
<path d="M0 0 C2 1.625 2 1.625 4 4 C4.25 7.25 4.25 7.25 4 10 C2.66666667 10 1.33333333 10 0 10 C0 6.7 0 3.4 0 0 Z " fill="#E0DFDF" transform="translate(106,34)"/>
<path d="M0 0 C1.32 0.66 2.64 1.32 4 2 C4.33 1.34 4.66 0.68 5 0 C4.67 1.98 4.34 3.96 4 6 C3.01 5.67 2.02 5.34 1 5 C0.34 6.32 -0.32 7.64 -1 9 C-2.60031344 5.79937313 -1.03173691 3.27728194 0 0 Z " fill="#C6C6D0" transform="translate(21,29)"/>
<path d="M0 0 C1.32 0.33 2.64 0.66 4 1 C3.34 2.98 2.68 4.96 2 7 C0.68 6.34 -0.64 5.68 -2 5 C-1.34 3.35 -0.68 1.7 0 0 Z " fill="#3F62A0" transform="translate(77,46)"/>
<path d="M0 0 C0.99 0.33 1.98 0.66 3 1 C3 1.99 3 2.98 3 4 C1.02 4 -0.96 4 -3 4 C-2.67 3.01 -2.34 2.02 -2 1 C-1.34 0.67 -0.68 0.34 0 0 Z " fill="#3B5E99" transform="translate(92,78)"/>
<path d="M0 0 C0.66 0 1.32 0 2 0 C1.67 2.97 1.34 5.94 1 9 C0.01 9.33 -0.98 9.66 -2 10 C-1.34 6.7 -0.68 3.4 0 0 Z " fill="#E4E9EE" transform="translate(66,72)"/>
<path d="M0 0 C1.65 0.33 3.3 0.66 5 1 C4.67 1.99 4.34 2.98 4 4 C2.35 4 0.7 4 -1 4 C-0.67 2.68 -0.34 1.36 0 0 Z " fill="#33599C" transform="translate(41,55)"/>
<path d="M0 0 C0.33 0 0.66 0 1 0 C1 2.64 1 5.28 1 8 C0.67 8 0.34 8 0 8 C0 5.36 0 2.72 0 0 Z " fill="#ADADFF" transform="translate(110,76)"/>
<path d="M0 0 C0.33 0 0.66 0 1 0 C1 1.65 1 3.3 1 5 C0.67 5 0.34 5 0 5 C0 3.35 0 1.7 0 0 Z " fill="#EEEBEB" transform="translate(18,92)"/>
<path d="M0 0 C0.33 0 0.66 0 1 0 C1 1.65 1 3.3 1 5 C0.67 5 0.34 5 0 5 C0 3.35 0 1.7 0 0 Z " fill="#EEEBEB" transform="translate(18,31)"/>
<path d="M0 0 C4 1 4 1 4 1 Z " fill="#FFFBFB" transform="translate(31,18)"/>
<path d="" fill="#E2E2E3" transform="translate(0,0)"/>
<path d="M0 0 C3 1 3 1 3 1 Z " fill="#FFFAFA" transform="translate(93,18)"/>
<path d="" fill="#949495" transform="translate(0,0)"/>
<path d="" fill="#FFFFFF" transform="translate(0,0)"/>
<path d="" fill="#FFFBFB" transform="translate(0,0)"/>
<path d="" fill="#BFFFBF" transform="translate(0,0)"/>
<path d="M0 0 C2 1 2 1 2 1 Z " fill="#94D495" transform="translate(29,19)"/>
<path d="" fill="#FFF8F8" transform="translate(0,0)"/>
<path d="" fill="#AAAAAC" transform="translate(0,0)"/>
<path d="" fill="#FFF8F8" transform="translate(0,0)"/>
<path d="" fill="#FFF8F8" transform="translate(0,0)"/>
<path d="" fill="#5C5CFF" transform="translate(0,0)"/>
<path d="" fill="#AAAAAC" transform="translate(0,0)"/>
<path d="" fill="#AAAAAC" transform="translate(0,0)"/>
<path d="" fill="#AAAAAC" transform="translate(0,0)"/>
<path d="" fill="#FFFFFF" transform="translate(0,0)"/>
</svg>
