<?xml version="1.0" encoding="UTF-8"?>
<svg version="1.1" xmlns="http://www.w3.org/2000/svg" width="128" height="128">
<path d="M0 0 C1.3632816 -0.0032188 2.72656285 -0.00658333 4.08984375 -0.01008606 C6.93750815 -0.01605004 9.78514231 -0.01792867 12.6328125 -0.01733398 C16.26741434 -0.01723225 19.90182131 -0.03090782 23.53637695 -0.04810619 C26.34864175 -0.05926366 29.16085988 -0.06125208 31.97314453 -0.06072426 C33.95997568 -0.06246493 35.94679227 -0.07327641 37.93359375 -0.08427429 C44.00670492 -0.06893587 49.28810791 0.03054087 55 2.16796875 C55.763125 2.43609375 56.52625 2.70421875 57.3125 2.98046875 C59.70240805 4.6622559 60.06510749 6.42561738 61 9.16796875 C61.50015625 10.04710937 62.0003125 10.92625 62.515625 11.83203125 C64.24496051 15.71848527 64.56474718 19.11142469 64.6875 23.29296875 C64.72020996 24.11394043 64.75291992 24.93491211 64.78662109 25.78076172 C65.10398316 35.2797945 65.10309719 44.78949127 65.125 54.29296875 C65.12776947 55.11057678 65.13053894 55.92818481 65.13339233 56.77056885 C65.13918292 59.11402001 65.13740296 61.45732985 65.1328125 63.80078125 C65.13478134 64.51451904 65.13675018 65.22825684 65.13877869 65.96362305 C65.11532433 70.93732009 65.11532433 70.93732009 64 73.16796875 C64.66 73.16796875 65.32 73.16796875 66 73.16796875 C66 75.14796875 66 77.12796875 66 79.16796875 C65.34 79.16796875 64.68 79.16796875 64 79.16796875 C62.73779098 80.78723046 62.73779098 80.78723046 61.5625 82.85546875 C61.1190625 83.5825 60.675625 84.30953125 60.21875 85.05859375 C59.26768716 86.70466404 58.39812085 88.3978957 57.5625 90.10546875 C56 92.16796875 56 92.16796875 53.25 92.91796875 C52.1775 93.00046875 51.105 93.08296875 50 93.16796875 C49.01870117 93.33538574 48.03740234 93.50280273 47.02636719 93.67529297 C41.81495376 94.43088471 36.58320479 94.31075266 31.328125 94.30078125 C29.65082306 94.30221634 29.65082306 94.30221634 27.93963623 94.30368042 C25.57954858 94.30435909 23.21945903 94.30252667 20.859375 94.29833984 C17.27599818 94.29300744 13.69274784 94.2982851 10.109375 94.3046875 C7.80729139 94.30402627 5.50520786 94.30274418 3.203125 94.30078125 C2.144422 94.30280548 1.08571899 94.30482971 -0.00506592 94.30691528 C-19.26610098 94.24725468 -19.26610098 94.24725468 -23.625 90.85546875 C-25.98720673 88.18244535 -26.29338347 87.43361277 -27 84.16796875 C-27.24539017 83.56199356 -27.49078033 82.95601837 -27.74360657 82.3316803 C-30.65446168 75.11881579 -30.38245174 67.95413739 -30.29296875 60.2890625 C-30.28736236 58.86703441 -30.2830972 57.44500047 -30.28010559 56.02296448 C-30.26873869 52.30914867 -30.23934372 48.59569381 -30.20599365 44.88201904 C-30.17511511 41.08090088 -30.16156255 37.27972349 -30.14648438 33.47851562 C-30.11446454 26.04150344 -30.06336932 18.60478698 -30 11.16796875 C-29.01 10.83796875 -28.02 10.50796875 -27 10.16796875 C-25.59349987 8.60819101 -25.59349987 8.60819101 -24.375 6.73046875 C-23.73691406 5.80427734 -23.73691406 5.80427734 -23.0859375 4.859375 C-21.94847144 3.15399611 -21.94847144 3.15399611 -21 1.16796875 C-14.14443126 -0.39957 -6.99247406 0.00599451 0 0 Z M-13 21.16796875 C-13 30.73796875 -13 40.30796875 -13 50.16796875 C-12.67 50.16796875 -12.34 50.16796875 -12 50.16796875 C-12 40.59796875 -12 31.02796875 -12 21.16796875 C-12.33 21.16796875 -12.66 21.16796875 -13 21.16796875 Z M-11 21.16796875 C-11 21.49796875 -11 21.82796875 -11 22.16796875 C-6.71 22.16796875 -2.42 22.16796875 2 22.16796875 C2 21.83796875 2 21.50796875 2 21.16796875 C-2.29 21.16796875 -6.58 21.16796875 -11 21.16796875 Z M13 21.16796875 C13 28.42796875 13 35.68796875 13 43.16796875 C13.33 43.16796875 13.66 43.16796875 14 43.16796875 C14 35.90796875 14 28.64796875 14 21.16796875 C13.67 21.16796875 13.34 21.16796875 13 21.16796875 Z M15 21.16796875 C15 21.49796875 15 21.82796875 15 22.16796875 C20.61 22.16796875 26.22 22.16796875 32 22.16796875 C32 21.83796875 32 21.50796875 32 21.16796875 C26.39 21.16796875 20.78 21.16796875 15 21.16796875 Z M41 21.16796875 C41 30.73796875 41 40.30796875 41 50.16796875 C41.33 50.16796875 41.66 50.16796875 42 50.16796875 C42 40.59796875 42 31.02796875 42 21.16796875 C41.67 21.16796875 41.34 21.16796875 41 21.16796875 Z M47 21.16796875 C47 22.81796875 47 24.46796875 47 26.16796875 C47.33 26.16796875 47.66 26.16796875 48 26.16796875 C48 24.51796875 48 22.86796875 48 21.16796875 C47.67 21.16796875 47.34 21.16796875 47 21.16796875 Z M-11 23.16796875 C-11 32.07796875 -11 40.98796875 -11 50.16796875 C0.74789427 50.7236539 0.74789427 50.7236539 9 46.16796875 C8.54177532 42.69855329 8.10868317 39.49401826 7 36.16796875 C6.34 36.16796875 5.68 36.16796875 5 36.16796875 C6.75 32.29296875 6.75 32.29296875 9 31.16796875 C9.16681109 28.25144701 9.16681109 28.25144701 9 25.16796875 C8.34 24.50796875 7.68 23.84796875 7 23.16796875 C6.01 23.16796875 5.02 23.16796875 4 23.16796875 C-1 23.16796875 -6 23.16796875 -11 23.16796875 Z M15 23.16796875 C15 31.41796875 15 39.66796875 15 48.16796875 C15.99 48.16796875 16.98 48.16796875 18 48.16796875 C18.2165625 46.28078125 18.2165625 46.28078125 18.4375 44.35546875 C18.73748686 41.74129752 19.15813297 39.69356983 20 37.16796875 C20.99 36.83796875 21.98 36.50796875 23 36.16796875 C22.01 36.16796875 21.02 36.16796875 20 36.16796875 C20 35.17796875 20 34.18796875 20 33.16796875 C19.67 32.83796875 19.34 32.50796875 19 32.16796875 C19.33 32.16796875 19.66 32.16796875 20 32.16796875 C20 29.85796875 20 27.54796875 20 25.16796875 C22.31 25.49796875 24.62 25.82796875 27 26.16796875 C27.66 28.14796875 28.32 30.12796875 29 32.16796875 C28.360625 32.41546875 27.72125 32.66296875 27.0625 32.91796875 C24.88627215 33.99686884 24.88627215 33.99686884 24 36.04296875 C24 36.74421875 24 37.44546875 24 38.16796875 C24.8971875 39.03421875 24.8971875 39.03421875 25.8125 39.91796875 C28.89468165 43.08821273 29.14018611 45.86889928 30 50.16796875 C31.65 50.16796875 33.3 50.16796875 35 50.16796875 C36.46444278 44.7095911 35.63918616 41.97505784 33 37.16796875 C32.01 36.83796875 31.02 36.50796875 30 36.16796875 C29.67 35.50796875 29.34 34.84796875 29 34.16796875 C29.66 34.16796875 30.32 34.16796875 31 34.16796875 C31 33.50796875 31 32.84796875 31 32.16796875 C31.99 32.49796875 32.98 32.82796875 34 33.16796875 C35.60920937 29.94955001 34.0749168 27.45243676 33 24.16796875 C31.78571012 22.72408304 31.78571012 22.72408304 28.18359375 23.0703125 C26.60152953 23.07605737 25.01948969 23.08907282 23.4375 23.10546875 C20.653125 23.12609375 17.86875 23.14671875 15 23.16796875 Z M34 23.16796875 C35 25.16796875 35 25.16796875 35 25.16796875 Z M43 23.16796875 C43 31.41796875 43 39.66796875 43 48.16796875 C43.99 48.16796875 44.98 48.16796875 46 48.16796875 C46 39.91796875 46 31.66796875 46 23.16796875 C45.01 23.16796875 44.02 23.16796875 43 23.16796875 Z M35 25.16796875 C35 26.81796875 35 28.46796875 35 30.16796875 C35.33 30.16796875 35.66 30.16796875 36 30.16796875 C36 28.51796875 36 26.86796875 36 25.16796875 C35.67 25.16796875 35.34 25.16796875 35 25.16796875 Z M47 27.16796875 C47 34.75796875 47 42.34796875 47 50.16796875 C47.33 50.16796875 47.66 50.16796875 48 50.16796875 C48 42.57796875 48 34.98796875 48 27.16796875 C47.67 27.16796875 47.34 27.16796875 47 27.16796875 Z M19 41.16796875 C19 44.13796875 19 47.10796875 19 50.16796875 C19.33 50.16796875 19.66 50.16796875 20 50.16796875 C20 47.19796875 20 44.22796875 20 41.16796875 C19.67 41.16796875 19.34 41.16796875 19 41.16796875 Z M13 46.16796875 C14 50.16796875 14 50.16796875 14 50.16796875 Z M36 47.16796875 C37 50.16796875 37 50.16796875 37 50.16796875 Z " fill="#09529A" transform="translate(47,16.83203125)"/>
<path d="M0 0 C2.97 0 5.94 0 9 0 C9 10.23 9 20.46 9 31 C6.36 31 3.72 31 1 31 C1 31.99 1 32.98 1 34 C1.53625 34.061875 2.0725 34.12375 2.625 34.1875 C6.25648406 35.42984981 8.35790442 37.23780916 11 40 C11.63405666 43.94524145 11.36844982 46.17098791 9.75 49.8125 C7.83877028 52.20153715 6.94084445 53.18309876 4 54 C0.56026546 54 -1.92802022 53.96746175 -4.5625 51.58984375 C-5.78516083 50.12056667 -6.90161764 48.56436276 -8 47 C-8.33 48.98 -8.66 50.96 -9 53 C-10.98 53 -12.96 53 -15 53 C-15.33 49.37 -15.66 45.74 -16 42 C-17.65 41.67 -19.3 41.34 -21 41 C-22.73956658 42.73956658 -22.37190386 45.1936622 -22.5625 47.5625 C-22.68818359 49.08037109 -22.68818359 49.08037109 -22.81640625 50.62890625 C-22.87699219 51.41136719 -22.93757813 52.19382813 -23 53 C-24.98 53 -26.96 53 -29 53 C-29.33 49.37 -29.66 45.74 -30 42 C-31.65 41.67 -33.3 41.34 -35 41 C-36.73956658 42.73956658 -36.37190386 45.1936622 -36.5625 47.5625 C-36.64628906 48.57441406 -36.73007812 49.58632812 -36.81640625 50.62890625 C-36.90728516 51.80259766 -36.90728516 51.80259766 -37 53 C-38.65 53 -40.3 53 -42 53 C-42.77224537 41.27903139 -42.77224537 41.27903139 -40 36.6875 C-35.96877438 34.41993559 -33.59817797 34.78103914 -29 35 C-26.83284443 34.12516085 -26.83284443 34.12516085 -25 33 C-23.33889578 32.63996994 -21.67230106 32.30380592 -20 32 C-20.12568359 30.82244141 -20.12568359 30.82244141 -20.25390625 29.62109375 C-20.81293539 23.85389441 -21.16353027 18.68837021 -20 13 C-20.66 13 -21.32 13 -22 13 C-22 10.36 -22 7.72 -22 5 C-20.54207116 4.94600264 -19.08357288 4.90720823 -17.625 4.875 C-16.81289062 4.85179687 -16.00078125 4.82859375 -15.1640625 4.8046875 C-13 5 -13 5 -11 7 C-10.375 9.625 -10.375 9.625 -10 12 C-10.99 12.66 -11.98 13.32 -13 14 C-14.19232613 16.05003955 -14.19232613 16.05003955 -15 18 C-14.360625 18.185625 -13.72125 18.37125 -13.0625 18.5625 C-11 20 -11 20 -10.25 23.625 C-10.12625 25.295625 -10.12625 25.295625 -10 27 C-9.34 27 -8.68 27 -8 27 C-8 27.99 -8 28.98 -8 30 C-7.566875 29.505 -7.13375 29.01 -6.6875 28.5 C-5 27 -5 27 -2 27 C-1.505 27.99 -1.505 27.99 -1 29 C-0.67 19.43 -0.34 9.86 0 0 Z M1 1 C1 10.57 1 20.14 1 30 C1.33 30 1.66 30 2 30 C2 20.43 2 10.86 2 1 C1.67 1 1.34 1 1 1 Z M7 1 C7 2.65 7 4.3 7 6 C7.33 6 7.66 6 8 6 C8 4.35 8 2.7 8 1 C7.67 1 7.34 1 7 1 Z M3 3 C3 11.25 3 19.5 3 28 C3.99 28 4.98 28 6 28 C6 19.75 6 11.5 6 3 C5.01 3 4.02 3 3 3 Z M7 7 C7 14.59 7 22.18 7 30 C7.33 30 7.66 30 8 30 C8 22.41 8 14.82 8 7 C7.67 7 7.34 7 7 7 Z " fill="#115197" transform="translate(87,37)"/>
<path d="M0 0 C2.9375 1 2.9375 1 5 2 C5.66 1.34 6.32 0.68 7 0 C11.25662807 -0.57300763 13.56597138 -0.2130686 17.4375 1.6875 C19.79597122 3.827015 19.99997522 4.99978455 20.37109375 8.2265625 C20.37466584 11.50574495 20.25840105 14.73170529 20 18 C18.35 18 16.7 18 15 18 C14.67 14.37 14.34 10.74 14 7 C11.525 6.505 11.525 6.505 9 6 C7.26043342 7.73956658 7.62809614 10.1936622 7.4375 12.5625 C7.35371094 13.57441406 7.26992187 14.58632812 7.18359375 15.62890625 C7.09271484 16.80259766 7.09271484 16.80259766 7 18 C5.02 18 3.04 18 1 18 C0.67 14.37 0.34 10.74 0 7 C-1.65 6.67 -3.3 6.34 -5 6 C-6.73956658 7.73956658 -6.37190386 10.1936622 -6.5625 12.5625 C-6.64628906 13.57441406 -6.73007812 14.58632812 -6.81640625 15.62890625 C-6.87699219 16.41136719 -6.93757813 17.19382812 -7 18 C-8.65 18 -10.3 18 -12 18 C-12.77455465 6.2439817 -12.77455465 6.2439817 -9.9375 1.6875 C-6.26749187 -0.42080254 -4.17797653 -0.52224707 0 0 Z " fill="#DD6E32" transform="translate(57,72)"/>
<path d="M0 0 C2.77839416 1.38310411 3.86203622 2.54916347 6 5 C6.63405666 8.94524145 6.36844982 11.17098791 4.75 14.8125 C2.83877028 17.20153715 1.94084445 18.18309876 -1 19 C-5.12673287 18.92630834 -7.25945415 18.62661572 -10.4375 15.9375 C-12.45725737 12.14035615 -12.96777619 9.21067536 -12 5 C-8.63394339 0.10391766 -5.83719613 -1.0240695 0 0 Z " fill="#E36E2F" transform="translate(92,72)"/>
<path d="M0 0 C4.15279896 -0.4152799 7.04848801 -0.41253023 10.4375 2.0625 C13 5 13 5 13.375 8.8125 C13.25125 9.864375 13.1275 10.91625 13 12 C12.01 11.67 11.02 11.34 10 11 C9.38125 11.495 8.7625 11.99 8.125 12.5 C6 14 6 14 3.3125 13.75 C1 13 1 13 0 12 C-0.04080783 10.00041636 -0.04254356 7.99954746 0 6 C1.65 5.67 3.3 5.34 5 5 C5 4.34 5 3.68 5 3 C2.525 2.01 2.525 2.01 0 1 C0 0.67 0 0.34 0 0 Z " fill="#DC6E33" transform="translate(85,72)"/>
<path d="M0 0 C0.33 0 0.66 0 1 0 C1.33 3.96 1.66 7.92 2 12 C2.33 12 2.66 12 3 12 C3.33 17.61 3.66 23.22 4 29 C2.68 29 1.36 29 0 29 C-0.28875 28.21625 -0.5775 27.4325 -0.875 26.625 C-1.84912254 23.90328368 -1.84912254 23.90328368 -4 22 C-5.26905028 18.04354913 -6.256956 14.08674202 -7 10 C-5.35 9.34 -3.7 8.68 -2 8 C-2.185625 8.61875 -2.37125 9.2375 -2.5625 9.875 C-3.23686176 12.04160178 -3.23686176 12.04160178 -2 14 C-2.66 14 -3.32 14 -4 14 C-4 14.66 -4 15.32 -4 16 C-3.01 16 -2.02 16 -1 16 C-1.01160156 15.26394531 -1.02320313 14.52789062 -1.03515625 13.76953125 C-1.04417969 12.79371094 -1.05320312 11.81789063 -1.0625 10.8125 C-1.07410156 9.84957031 -1.08570313 8.88664062 -1.09765625 7.89453125 C-1.00486622 5.14423487 -0.62111685 2.67520409 0 0 Z M1 24 C2 28 2 28 2 28 Z " fill="#2B5F8E" transform="translate(59,39)"/>
<path d="M0 0 C1.45792884 -0.05399736 2.91642712 -0.09279177 4.375 -0.125 C5.18710938 -0.14820313 5.99921875 -0.17140625 6.8359375 -0.1953125 C9 0 9 0 11 2 C11.625 4.625 11.625 4.625 12 7 C8.6828589 8.4216319 5.55780196 9.39009109 2 10 C2 9.34 2 8.68 2 8 C1.34 8 0.68 8 0 8 C0 5.36 0 2.72 0 0 Z " fill="#134E94" transform="translate(65,42)"/>
<path d="M0 0 C2.375 1 2.375 1 4 2 C3.8125 3.875 3.8125 3.875 3 6 C0.4375 7.25 0.4375 7.25 -2 8 C-1.01 8.99 -0.02 9.98 1 11 C-1.31 11 -3.62 11 -6 11 C-6.33 9.68 -6.66 8.36 -7 7 C-7.33 7 -7.66 7 -8 7 C-8 5.02 -8 3.04 -8 1 C-5.2201184 -0.3899408 -3.0813674 -0.18488204 0 0 Z M-7 2 C-6 5 -6 5 -6 5 Z " fill="#104CA1" transform="translate(47,42)"/>
<path d="M0 0 C3.375 -0.125 3.375 -0.125 7 0 C7.66 0.66 8.32 1.32 9 2 C8.625 5.625 8.625 5.625 8 9 C5.36 8.67 2.72 8.34 0 8 C0 5.36 0 2.72 0 0 Z " fill="#0D4E93" transform="translate(41,54)"/>
<path d="M0 0 C2.5625 0.1875 2.5625 0.1875 4.5625 2.1875 C4.8125 4.6875 4.8125 4.6875 4.5625 7.1875 C3.9025 7.8475 3.2425 8.5075 2.5625 9.1875 C-1.99305556 8.63194444 -1.99305556 8.63194444 -3.4375 7.1875 C-3.5625 4.1875 -3.5625 4.1875 -3.4375 1.1875 C-2.4375 0.1875 -2.4375 0.1875 0 0 Z " fill="#1E538D" transform="translate(88.4375,76.8125)"/>
<path d="M0 0 C20.13 0 40.26 0 61 0 C61 0.33 61 0.66 61 1 C40.87 1 20.74 1 0 1 C0 0.67 0 0.34 0 0 Z " fill="#0053A8" transform="translate(34,15)"/>
<path d="M0 0 C0.33 0 0.66 0 1 0 C1 18.48 1 36.96 1 56 C0.67 56 0.34 56 0 56 C0 37.52 0 19.04 0 0 Z " fill="#007588" transform="translate(15,36)"/>
<path d="M0 0 C17.82 0 35.64 0 54 0 C54 0.33 54 0.66 54 1 C36.18 1 18.36 1 0 1 C0 0.67 0 0.34 0 0 Z " fill="#0000FF" transform="translate(37,112)"/>
<path d="M0 0 C0.33 0 0.66 0 1 0 C1 15.84 1 31.68 1 48 C0.67 48 0.34 48 0 48 C0 32.16 0 16.32 0 0 Z " fill="#0000FF" transform="translate(113,41)"/>
<path d="M0 0 C0.99 0 1.98 0 3 0 C2.8125 1.875 2.8125 1.875 2 4 C-0.5625 5.25 -0.5625 5.25 -3 6 C-2.01 6.99 -1.02 7.98 0 9 C-2.31 9 -4.62 9 -7 9 C-6.67 7.35 -6.34 5.7 -6 4 C-4.35 3.67 -2.7 3.34 -1 3 C-0.67 2.01 -0.34 1.02 0 0 Z " fill="#1F5293" transform="translate(48,44)"/>
<path d="M0 0 C0.66 0.33 1.32 0.66 2 1 C1.49396008 3.16874252 1.00016187 4.99967627 0 7 C-1.32 6.34 -2.64 5.68 -4 5 C-2.25 1.125 -2.25 1.125 0 0 Z " fill="#ED6F29" transform="translate(95,82)"/>
<path d="M0 0 C0.99 0.33 1.98 0.66 3 1 C3 3.64 3 6.28 3 9 C2.01 9 1.02 9 0 9 C0 6.03 0 3.06 0 0 Z " fill="#F76F24" transform="translate(73,80)"/>
<path d="M0 0 C0.33 0 0.66 0 1 0 C1.33 1.98 1.66 3.96 2 6 C4.31 6.33 6.62 6.66 9 7 C6.64046906 9.35953094 5.22104383 9.49141413 2 10 C2 9.34 2 8.68 2 8 C1.34 8 0.68 8 0 8 C0 5.36 0 2.72 0 0 Z " fill="#557B74" transform="translate(65,42)"/>
<path d="M0 0 C1.32 0 2.64 0 4 0 C2.92598892 2.91517292 2.22189824 4.77810176 0 7 C-0.66 5.35 -1.32 3.7 -2 2 C-1.34 2 -0.68 2 0 2 C0 1.34 0 0.68 0 0 Z " fill="#366695" transform="translate(78,49)"/>
<path d="M0 0 C3.63 0 7.26 0 11 0 C11 0.33 11 0.66 11 1 C7.37 1 3.74 1 0 1 C0 0.67 0 0.34 0 0 Z " fill="#005CD0" transform="translate(37,65)"/>
<path d="M0 0 C0.33 0 0.66 0 1 0 C1 2.64 1 5.28 1 8 C0.67 8 0.34 8 0 8 C0 5.36 0 2.72 0 0 Z " fill="#003FBF" transform="translate(112,32)"/>
<path d="M0 0 C0.33 0 0.66 0 1 0 C1 2.31 1 4.62 1 7 C0.67 7 0.34 7 0 7 C0 4.69 0 2.38 0 0 Z " fill="#006DFF" transform="translate(39,54)"/>
<path d="M0 0 C1.98 0 3.96 0 6 0 C6 0.33 6 0.66 6 1 C4.02 1 2.04 1 0 1 C0 0.67 0 0.34 0 0 Z " fill="#009494" transform="translate(41,63)"/>
<path d="M0 0 C0.33 0 0.66 0 1 0 C1 1.98 1 3.96 1 6 C0.67 6 0.34 6 0 6 C0 4.02 0 2.04 0 0 Z " fill="#094C87" transform="translate(54,42)"/>
<path d="M0 0 C1.65 0 3.3 0 5 0 C5 0.33 5 0.66 5 1 C3.35 1 1.7 1 0 1 C0 0.67 0 0.34 0 0 Z " fill="#0054C3" transform="translate(92,111)"/>
<path d="M0 0 C1.65 0 3.3 0 5 0 C5 0.33 5 0.66 5 1 C3.35 1 1.7 1 0 1 C0 0.67 0 0.34 0 0 Z " fill="#0066B2" transform="translate(32,111)"/>
<path d="M0 0 C0.33 0 0.66 0 1 0 C1 1.65 1 3.3 1 5 C0.67 5 0.34 5 0 5 C0 3.35 0 1.7 0 0 Z " fill="#003BC3" transform="translate(16,92)"/>
<path d="M0 0 C1 4 1 4 1 4 Z " fill="#003FAA" transform="translate(51,56)"/>
<path d="M0 0 C1 4 1 4 1 4 Z " fill="#003FAA" transform="translate(77,44)"/>
<path d="M0 0 C1 4 1 4 1 4 Z " fill="#0044C9" transform="translate(16,31)"/>
<path d="M0 0 C3 1 3 1 3 1 Z " fill="#003FA9" transform="translate(29,110)"/>
<path d="" fill="#001CB8" transform="translate(0,0)"/>
<path d="" fill="#001CE2" transform="translate(0,0)"/>
<path d="" fill="#001C9B" transform="translate(0,0)"/>
<path d="" fill="#0046B8" transform="translate(0,0)"/>
<path d="M0 0 C3 1 3 1 3 1 Z " fill="#001CB8" transform="translate(95,16)"/>
<path d="M0 0 C3 1 3 1 3 1 Z " fill="#0038C6" transform="translate(30,16)"/>
<path d="M0 0 C2 1 2 1 2 1 Z " fill="#0055AA" transform="translate(97,110)"/>
<path d="" fill="#0000BF" transform="translate(0,0)"/>
<path d="" fill="#003FFF" transform="translate(0,0)"/>
<path d="" fill="#003FBF" transform="translate(0,0)"/>
<path d="" fill="#00AAD4" transform="translate(0,0)"/>
<path d="" fill="#006A94" transform="translate(0,0)"/>
<path d="" fill="#001FBF" transform="translate(0,0)"/>
<path d="" fill="#006A94" transform="translate(0,0)"/>
<path d="" fill="#006A6A" transform="translate(0,0)"/>
<path d="M0 0 C2 1 2 1 2 1 Z " fill="#006A94" transform="translate(46,50)"/>
<path d="" fill="#002AD4" transform="translate(0,0)"/>
<path d="" fill="#0000BF" transform="translate(0,0)"/>
<path d="" fill="#0000BF" transform="translate(0,0)"/>
<path d="M0 0 C2 1 2 1 2 1 Z " fill="#00BFBF" transform="translate(100,18)"/>
<path d="M0 0 C2 1 2 1 2 1 Z " fill="#00AAAA" transform="translate(98,17)"/>
<path d="M0 0 C2 1 2 1 2 1 Z " fill="#007FBF" transform="translate(28,17)"/>
<path d="" fill="#0055AA" transform="translate(0,0)"/>
<path d="" fill="#0055AA" transform="translate(0,0)"/>
<path d="" fill="#005555" transform="translate(0,0)"/>
<path d="" fill="#0055AA" transform="translate(0,0)"/>
<path d="" fill="#007F7F" transform="translate(0,0)"/>
<path d="" fill="#00007F" transform="translate(0,0)"/>
<path d="" fill="#005555" transform="translate(0,0)"/>
<path d="" fill="#003F7F" transform="translate(0,0)"/>
<path d="" fill="#0000FF" transform="translate(0,0)"/>
<path d="" fill="#007F7F" transform="translate(0,0)"/>
<path d="" fill="#007F7F" transform="translate(0,0)"/>
<path d="" fill="#007F7F" transform="translate(0,0)"/>
<path d="" fill="#0000FF" transform="translate(0,0)"/>
<path d="" fill="#0000FF" transform="translate(0,0)"/>
<path d="" fill="#0000FF" transform="translate(0,0)"/>
<path d="" fill="#0000FF" transform="translate(0,0)"/>
<path d="" fill="#0000FF" transform="translate(0,0)"/>
<path d="" fill="#0000FF" transform="translate(0,0)"/>
<path d="" fill="#003F7F" transform="translate(0,0)"/>
<path d="" fill="#0000FF" transform="translate(0,0)"/>
<path d="" fill="#007F7F" transform="translate(0,0)"/>
<path d="" fill="#00FFFF" transform="translate(0,0)"/>
<path d="" fill="#00007F" transform="translate(0,0)"/>
<path d="" fill="#0000FF" transform="translate(0,0)"/>
<path d="" fill="#005555" transform="translate(0,0)"/>
<path d="" fill="#0055AA" transform="translate(0,0)"/>
<path d="" fill="#007F7F" transform="translate(0,0)"/>
<path d="" fill="#0000FF" transform="translate(0,0)"/>
<path d="" fill="#0055AA" transform="translate(0,0)"/>
<path d="" fill="#00007F" transform="translate(0,0)"/>
<path d="" fill="#005555" transform="translate(0,0)"/>
<path d="" fill="#007F7F" transform="translate(0,0)"/>
<path d="" fill="#007FFF" transform="translate(0,0)"/>
</svg>
