<?xml version="1.0" encoding="UTF-8"?>
<svg version="1.1" xmlns="http://www.w3.org/2000/svg" width="128" height="128">
<path d="M0 0 C3.99365159 2.34920682 6.06053272 3.8624698 8 8 C10.25490242 9.97303962 12.31877206 11.65938603 15 13 C15.35371498 14.66246041 15.68282794 16.33018241 16 18 C16.79847578 19.93144816 17.63439798 21.84768859 18.5 23.75 C22.70180077 33.76124705 22.57938118 42.40487372 20 53 C18.65296362 56.25690133 17.14642653 59.29856618 15.4375 62.37890625 C13.94016048 64.96962413 13.94016048 64.96962413 12.93359375 67.77734375 C11.75172997 70.59106966 10.67093068 70.70500331 8 72 C7.525625 72.804375 7.05125 73.60875 6.5625 74.4375 C4.43177908 77.93188231 1.90954899 79.53707903 -2.0625 80.5 C-4.10777655 80.88263373 -4.10777655 80.88263373 -5.75 82.4375 C-12.29154867 86.98024213 -20.39410664 86.2281768 -28 86 C-28 85.34 -28 84.68 -28 84 C-30.64 84 -33.28 84 -36 84 C-36 83.34 -36 82.68 -36 82 C-37.051875 81.71125 -38.10375 81.4225 -39.1875 81.125 C-47.88216626 78.55936078 -51.40621729 75.03991746 -56.53515625 67.70703125 C-57.98756459 65.7185834 -57.98756459 65.7185834 -61 65 C-61.12246094 64.29488281 -61.24492188 63.58976562 -61.37109375 62.86328125 C-62.03405201 59.84496817 -62.98175575 57.08110558 -64.0625 54.1875 C-64.42472656 53.21167969 -64.78695312 52.23585937 -65.16015625 51.23046875 C-65.57587891 50.12638672 -65.57587891 50.12638672 -66 49 C-66.66 49 -67.32 49 -68 49 C-68 43.06 -68 37.12 -68 31 C-67.34 31 -66.68 31 -66 31 C-63.17653787 23.57009153 -63.17653787 23.57009153 -61 15.9375 C-60 13 -60 13 -57.9375 11.75 C-57.298125 11.5025 -56.65875 11.255 -56 11 C-55.67 10.01 -55.34 9.02 -55 8 C-53.67592331 7.31513275 -52.34090759 6.65129797 -51 6 C-49.07487171 4.19154615 -47.30934117 2.39772436 -45.6875 0.3125 C-43.05885005 -1.73200551 -40.263361 -1.61927455 -37 -2 C-35.91847656 -2.33386719 -34.83695313 -2.66773437 -33.72265625 -3.01171875 C-23.28028155 -5.78393365 -9.80397423 -4.90198712 0 0 Z M-25 13 C-21 14 -21 14 -21 14 Z M-31 14 C-31 14.33 -31 14.66 -31 15 C-29.02 15 -27.04 15 -25 15 C-25 14.67 -25 14.34 -25 14 C-26.98 14 -28.96 14 -31 14 Z M-19 14 C-19 14.33 -19 14.66 -19 15 C-17.35 15 -15.7 15 -14 15 C-14 14.67 -14 14.34 -14 14 C-15.65 14 -17.3 14 -19 14 Z M-35 17 C-39.47058824 20.76470588 -39.47058824 20.76470588 -42.25 22 C-44.21443956 22.85671556 -44.21443956 22.85671556 -44.625 25.0625 C-44.74875 25.701875 -44.8725 26.34125 -45 27 C-45.99 27.495 -45.99 27.495 -47 28 C-47.33 28.99 -47.66 29.98 -48 31 C-48.33 31.66 -48.66 32.32 -49 33 C-49.84267893 41.95647315 -49.45116456 49.56798973 -44 57 C-41.64031758 58.57312161 -39.54270222 59.79927951 -37 61 C-36.071875 61.53625 -35.14375 62.0725 -34.1875 62.625 C-27.75368114 65.3405729 -19.00364043 65.29404463 -12.42578125 63.16796875 C-10.10700614 62.0279889 -10.10700614 62.0279889 -7 60 C-6.030625 59.649375 -5.06125 59.29875 -4.0625 58.9375 C-3.381875 58.628125 -2.70125 58.31875 -2 58 C-1.67 57.01 -1.34 56.02 -1 55 C0 54 1 53 2 52 C5.5757183 45.75246245 5.51527505 38.9696007 3.7265625 32.13671875 C1.81734754 26.52198442 -0.92507836 22.26244963 -6 19 C-8.8371515 17.80404463 -8.8371515 17.80404463 -12 17 C-13.175625 16.62875 -14.35125 16.2575 -15.5625 15.875 C-21.15891257 14.50578061 -30.71522174 12.71522174 -35 17 Z M-67 34 C-66 37 -66 37 -66 37 Z M-29 65 C-29 65.33 -29 65.66 -29 66 C-24.38 66 -19.76 66 -15 66 C-15 65.67 -15 65.34 -15 65 C-19.62 65 -24.24 65 -29 65 Z " fill="#735AA5" transform="translate(86,24)"/>
<path d="M0 0 C2.57231221 2.57231221 2.50282558 4.18099791 3 7.75 C3.64708033 12.02278437 4.42611324 15.95286262 6 20 C6.66 20 7.32 20 8 20 C8.33 21.65 8.66 23.3 9 25 C8.34 25 7.68 25 7 25 C6.43546081 33.70644883 6.11176811 41.96319943 12 49 C14.44192885 50.17781774 14.44192885 50.17781774 17 51 C18.11375 51.680625 19.2275 52.36125 20.375 53.0625 C26.3624722 56.17182436 33.39265778 55.8279338 40 56 C39.01 57.65 38.02 59.3 37 61 C42.15521874 64.74006066 47.24576447 68.22944215 53 71 C46.91322716 77.08677284 40.89454954 78.11510077 32.5 78.125 C30.66646845 78.09323089 28.8329821 78.05498946 27 78 C27 77.34 27 76.68 27 76 C24.36 76 21.72 76 19 76 C19 75.34 19 74.68 19 74 C17.948125 73.71125 16.89625 73.4225 15.8125 73.125 C7.11783374 70.55936078 3.59378271 67.03991746 -1.53515625 59.70703125 C-2.98756459 57.7185834 -2.98756459 57.7185834 -6 57 C-6.12246094 56.29488281 -6.24492187 55.58976562 -6.37109375 54.86328125 C-7.03405201 51.84496817 -7.98175575 49.08110558 -9.0625 46.1875 C-9.42472656 45.21167969 -9.78695313 44.23585937 -10.16015625 43.23046875 C-10.57587891 42.12638672 -10.57587891 42.12638672 -11 41 C-11.66 41 -12.32 41 -13 41 C-13 35.06 -13 29.12 -13 23 C-12.34 23 -11.68 23 -11 23 C-8.17653787 15.57009153 -8.17653787 15.57009153 -6 7.9375 C-5 5 -5 5 -2.9375 3.75 C-2.298125 3.5025 -1.65875 3.255 -1 3 C-0.67 2.01 -0.34 1.02 0 0 Z M-12 26 C-11 29 -11 29 -11 29 Z " fill="#725AA5" transform="translate(31,32)"/>
<path d="M0 0 C1.6875 2.125 1.6875 2.125 3 5 C3.70125 6.093125 4.4025 7.18625 5.125 8.3125 C7.21445255 12.07027512 8.34085091 15.67739069 8 20 C6.16595672 26.38012928 3.64222803 33.23851465 -2 37 C-4.33984375 37.16015625 -4.33984375 37.16015625 -6.9375 37.0625 C-10.56104738 36.93095493 -10.56104738 36.93095493 -14.09375 37.59375 C-17.01988809 38.2173532 -18.93294226 36.82252995 -21.3828125 35.32421875 C-23.84104964 33.31131442 -24.87321295 30.91639001 -26 28 C-26.66 28 -27.32 28 -28 28 C-30.14336161 24.5233662 -30.21277626 21.78770805 -30.125 17.75 C-30.10695312 16.67234375 -30.08890625 15.5946875 -30.0703125 14.484375 C-30.04710937 13.66453125 -30.02390625 12.8446875 -30 12 C-29.34 12 -28.68 12 -28 12 C-27.49339844 11.07767578 -27.49339844 11.07767578 -26.9765625 10.13671875 C-26.53054687 9.32847656 -26.08453125 8.52023438 -25.625 7.6875 C-25.18414062 6.88699219 -24.74328125 6.08648437 -24.2890625 5.26171875 C-23.26486665 3.46472057 -22.14732862 1.72099292 -21 0 C-14.18490991 -1.46992139 -6.78196165 -1.69549041 0 0 Z M-29 22 C-28 24 -28 24 -28 24 Z " fill="#745BA5" transform="translate(74,46)"/>
<path d="M0 0 C3.43928828 1.03178648 6.37993906 2.22261103 9.4375 4.0625 C15.38412876 7.1929171 22.42125848 6.82867861 29 7 C28.01 8.65 27.02 10.3 26 12 C31.15521874 15.74006066 36.24576447 19.22944215 42 22 C35.91322716 28.08677284 29.89454954 29.11510077 21.5 29.125 C19.66646845 29.09323089 17.8329821 29.05498946 16 29 C16 28.01 16 27.02 16 26 C17.65 26 19.3 26 21 26 C20.45380548 22.23456806 19.02518177 20.81182464 16.125 18.4375 C12.11651128 15.1168147 12.11651128 15.1168147 10.5 13.49609375 C8.09418175 11.09654065 5.39101835 9.03894879 2.7421875 6.9140625 C0.66795727 4.6351997 0.34255843 3.02074249 0 0 Z " fill="#231B66" transform="translate(42,81)"/>
<path d="M0 0 C2.57231221 2.57231221 2.50282558 4.18099791 3 7.75 C3.64708033 12.02278437 4.42611324 15.95286262 6 20 C6.66 20 7.32 20 8 20 C8.33 21.65 8.66 23.3 9 25 C8.34 25 7.68 25 7 25 C6.56657572 33.57216909 6.57135067 39.5712979 11 47 C10.67 47.66 10.34 48.32 10 49 C4.27703976 45.22528154 4.27703976 45.22528154 3.51953125 41.875 C3.375 39.5625 3.375 39.5625 3.3984375 37.37890625 C3.13464051 34.78119234 3.13464051 34.78119234 1.109375 32.234375 C-1.37660871 28.42253331 -2.20472087 25.08483375 -3.125 20.6875 C-3.68141832 18.09164761 -4.29626587 15.56360291 -5 13 C-5.66 12.67 -6.32 12.34 -7 12 C-6.25 8.625 -6.25 8.625 -5 5 C-2.9375 3.75 -2.9375 3.75 -1 3 C-0.67 2.01 -0.34 1.02 0 0 Z " fill="#473673" transform="translate(31,32)"/>
<path d="M0 0 C3.40312738 1.05875074 6.01353231 2.00902154 9 4 C8.67 5.32 8.34 6.64 8 8 C8.94875 8.309375 9.8975 8.61875 10.875 8.9375 C14 10 14 10 16 11 C16 11.66 16 12.32 16 13 C16.99 13.33 17.98 13.66 19 14 C19 14.66 19 15.32 19 16 C19.66 16.226875 20.32 16.45375 21 16.6875 C24.92376787 18.40414844 28.727812 20.19754215 32 23 C32.5 25.8125 32.5 25.8125 32 28 C28.53777385 29.06723961 25.35960734 29.10173486 21.75 29.0625 C20.67234375 29.05347656 19.5946875 29.04445313 18.484375 29.03515625 C17.66453125 29.02355469 16.8446875 29.01195313 16 29 C16 28.01 16 27.02 16 26 C17.65 26 19.3 26 21 26 C20.45380548 22.23456806 19.02518177 20.81182464 16.125 18.4375 C12.11651128 15.1168147 12.11651128 15.1168147 10.5 13.49609375 C8.09418175 11.09654065 5.39101835 9.03894879 2.7421875 6.9140625 C0.66795727 4.6351997 0.34255843 3.02074249 0 0 Z " fill="#363063" transform="translate(42,81)"/>
<path d="M0 0 C0.66 0 1.32 0 2 0 C4.22360818 6.03873287 6.39779134 12.0704624 8.2890625 18.22265625 C8.9494778 20.21209066 8.9494778 20.21209066 11 22 C11.125 24.625 11.125 24.625 11 27 C9.5 25.6875 9.5 25.6875 8 24 C8 23.01 8 22.02 8 21 C7.34 21 6.68 21 6 21 C5.82984375 20.45730469 5.6596875 19.91460937 5.484375 19.35546875 C3.57974595 13.69466529 3.57974595 13.69466529 -1 10 C-1.92092281 14.65537356 -2.12205997 19.14685433 -2.0625 23.875 C-2.05573242 24.90753906 -2.05573242 24.90753906 -2.04882812 25.9609375 C-2.03716336 27.64066335 -2.01923271 29.32034375 -2 31 C-2.474375 30.505 -2.94875 30.01 -3.4375 29.5 C-4.75923698 27.88457803 -4.75923698 27.88457803 -6 28 C-6 22.06 -6 16.12 -6 10 C-5.34 10 -4.68 10 -4 10 C-3.79503906 9.36191406 -3.59007812 8.72382812 -3.37890625 8.06640625 C-3.10949219 7.24011719 -2.84007812 6.41382813 -2.5625 5.5625 C-2.29566406 4.73878906 -2.02882813 3.91507813 -1.75390625 3.06640625 C-1 1 -1 1 0 0 Z M-5 13 C-4 16 -4 16 -4 16 Z " fill="#6B5597" transform="translate(24,45)"/>
<path d="M0 0 C2.57231221 2.57231221 2.50282558 4.18099791 3 7.75 C3.64708033 12.02278437 4.42611324 15.95286262 6 20 C6.66 20 7.32 20 8 20 C8.33 21.65 8.66 23.3 9 25 C8.34 25 7.68 25 7 25 C6.67 27.97 6.34 30.94 6 34 C5.34 34 4.68 34 4 34 C2.62767333 29.68697334 1.70815254 25.47372558 1 21 C0.28147666 16.52606954 -0.48058345 12.27335905 -2 8 C-2.66 7.67 -3.32 7.34 -4 7 C-3.525625 6.21625 -3.05125 5.4325 -2.5625 4.625 C-1.66101977 3.11051322 -0.78820515 1.5764103 0 0 Z " fill="#2F2159" transform="translate(31,32)"/>
<path d="M0 0 C0.99 5.94 1.98 11.88 3 18 C3.99 18.33 4.98 18.66 6 19 C5.34 20.32 4.68 21.64 4 23 C2.68 23 1.36 23 0 23 C-3.52703159 17.38881338 -5.1280577 10.6077775 -5 4 C-1.82736156 0 -1.82736156 0 0 0 Z " fill="#59488E" transform="translate(37,29)"/>
<path d="M0 0 C0.66543468 2.24584204 1.00501374 3.93612929 0.8203125 6.2890625 C1.05687454 9.85806377 2.39867202 11.73107468 4.375 14.6875 C5.00148438 15.64011719 5.62796875 16.59273437 6.2734375 17.57421875 C7.92245412 20.03315647 7.92245412 20.03315647 10 22 C10 22.99 10 23.98 10 25 C8.35 25 6.7 25 5 25 C4.731875 24.401875 4.46375 23.80375 4.1875 23.1875 C2.99416367 20.98924887 1.78998098 19.71838174 0 18 C-3.14429624 14.6233666 -3.33583154 12.29883375 -3.1875 7.75 C-3.14689453 6.13351563 -3.14689453 6.13351563 -3.10546875 4.484375 C-3.07066406 3.66453125 -3.03585938 2.8446875 -3 2 C-2.34 2 -1.68 2 -1 2 C-0.67 1.34 -0.34 0.68 0 0 Z M-2 12 C-1 14 -1 14 -1 14 Z " fill="#614596" transform="translate(47,56)"/>
<path d="M0 0 C2.475 0.99 2.475 0.99 5 2 C5 2.66 5 3.32 5 4 C7.33214148 5.20628008 9.49642139 6.1654738 12 7 C12.99 8.485 12.99 8.485 14 10 C14.99 10.33 15.98 10.66 17 11 C17 12.98 17 14.96 17 17 C13.04 17 9.08 17 5 17 C5 16.01 5 15.02 5 14 C6.65 14 8.3 14 10 14 C9.46234448 10.17760529 7.9642541 8.80360997 5 6.4375 C1.10479285 3.31437855 1.10479285 3.31437855 0 0 Z " fill="#493195" transform="translate(53,93)"/>
<path d="M0 0 C0.66 0 1.32 0 2 0 C4.22360818 6.03873287 6.39779134 12.0704624 8.2890625 18.22265625 C8.9494778 20.21209066 8.9494778 20.21209066 11 22 C11.125 24.625 11.125 24.625 11 27 C9.5 25.6875 9.5 25.6875 8 24 C8 23.01 8 22.02 8 21 C7.34 21 6.68 21 6 21 C5.80664062 20.33613281 5.61328125 19.67226562 5.4140625 18.98828125 C3.79110946 13.46469965 3.79110946 13.46469965 1.8125 8.0625 C1 6 1 6 1 3 C0.34 3 -0.32 3 -1 3 C-0.67 2.01 -0.34 1.02 0 0 Z " fill="#614C92" transform="translate(24,45)"/>
<path d="M0 0 C0.66 0.33 1.32 0.66 2 1 C1.67 1.66 1.34 2.32 1 3 C6.15521874 6.74006066 11.24576447 10.22944215 17 13 C15 15 15 15 13 16 C13 15.01 13 14.02 13 13 C12.31550781 12.75507812 11.63101563 12.51015625 10.92578125 12.2578125 C7.47072071 10.77245937 4.3586143 8.87594838 1.1875 6.875 C0.59001953 6.50246094 -0.00746094 6.12992187 -0.62304688 5.74609375 C-2.08426251 4.8342952 -3.54244585 3.91764024 -5 3 C-2 1 -2 1 0 0 Z " fill="#4D3779" transform="translate(67,90)"/>
<path d="M0 0 C3.40312738 1.05875074 6.01353231 2.00902154 9 4 C9.625 7 9.625 7 10 10 C10.33 10.66 10.66 11.32 11 12 C6.558275 10.60402929 3.98459152 8.56492876 1 5 C0.1875 2.1875 0.1875 2.1875 0 0 Z " fill="#554183" transform="translate(42,81)"/>
<path d="M0 0 C0.66 0 1.32 0 2 0 C2 0.66 2 1.32 2 2 C2.66 2.33 3.32 2.66 4 3 C2.02 3.99 2.02 3.99 0 5 C3.3 7.31 6.6 9.62 10 12 C9.67 12.99 9.34 13.98 9 15 C7.39320484 13.89966185 5.78966207 12.79457336 4.1875 11.6875 C3.29417969 11.07261719 2.40085937 10.45773438 1.48046875 9.82421875 C-0.56100746 8.32284963 -2.28462787 6.85214599 -4 5 C-3.34 4.360625 -2.68 3.72125 -2 3.0625 C0.11602431 1.35917681 0.11602431 1.35917681 0 0 Z " fill="#5D4A94" transform="translate(71,87)"/>
<path d="M0 0 C3.55671873 1.31730323 5.37444506 3.46882497 7.6953125 6.40234375 C9.63498659 8.7775734 11.80164858 10.86445862 14 13 C13.67 13.66 13.34 14.32 13 15 C10.03 15 7.06 15 4 15 C4 14.67 4 14.34 4 14 C6.64 14 9.28 14 12 14 C11.67 13.34 11.34 12.68 11 12 C10.01 11.67 9.02 11.34 8 11 C6.65080468 9.34614767 5.31866272 7.678298 4 6 C3.2575 5.46375 2.515 4.9275 1.75 4.375 C1.1725 3.92125 0.595 3.4675 0 3 C0 2.01 0 1.02 0 0 Z " fill="#685097" transform="translate(50,92)"/>
<path d="M0 0 C0 1.66032168 -0.01140328 3.32119246 -0.0703125 4.98046875 C-0.20352923 10.35671532 0.35007067 14.86688652 2 20 C2.66 20.33 3.32 20.66 4 21 C4 21.66 4 22.32 4 23 C3.01 23 2.02 23 1 23 C-2.52703159 17.38881338 -4.1280577 10.6077775 -4 4 C-2.03515625 1.6015625 -2.03515625 1.6015625 0 0 Z " fill="#483774" transform="translate(36,29)"/>
<path d="M0 0 C0.99 0 1.98 0 3 0 C3.16435547 0.92619141 3.16435547 0.92619141 3.33203125 1.87109375 C4.31534905 7.12344983 5.57185453 12.00921876 7.51171875 16.9921875 C8.08279438 19.34045047 7.75741738 20.7328312 7 23 C4.95227149 17.68187012 2.99319129 12.47497411 1.875 6.875 C1.58625 5.59625 1.2975 4.3175 1 3 C0.34 2.67 -0.32 2.34 -1 2 C-0.67 1.34 -0.34 0.68 0 0 Z " fill="#524182" transform="translate(25,42)"/>
<path d="M0 0 C0.66 0.66 1.32 1.32 2 2 C1.34 2 0.68 2 0 2 C0 2.66 0 3.32 0 4 C0.99 3.67 1.98 3.34 3 3 C5.28571429 11.42857143 5.28571429 11.42857143 5 16 C4.34 14.68 3.68 13.36 3 12 C2.34 12 1.68 12 1 12 C1 10.02 1 8.04 1 6 C0.34 6 -0.32 6 -1 6 C-1.33 5.01 -1.66 4.02 -2 3 C-1.34 2.01 -0.68 1.02 0 0 Z " fill="#3C297D" transform="translate(27,36)"/>
<path d="M0 0 C1.32 0.33 2.64 0.66 4 1 C3.67 1.33 3.34 1.66 3 2 C9.435 5.96 9.435 5.96 16 10 C12 11 12 11 9.4921875 9.6015625 C8.62851563 8.94929688 7.76484375 8.29703125 6.875 7.625 C3.56793748 5.10022851 3.56793748 5.10022851 0 3 C0 2.01 0 1.02 0 0 Z " fill="#382C67" transform="translate(61,91)"/>
<path d="M0 0 C2.475 0.99 2.475 0.99 5 2 C5 2.66 5 3.32 5 4 C7.33214148 5.20628008 9.49642139 6.1654738 12 7 C12.33 7.99 12.66 8.98 13 10 C12.34 10 11.68 10 11 10 C11 9.34 11 8.68 11 8 C9.948125 8.2165625 9.948125 8.2165625 8.875 8.4375 C4.84711158 7.82456046 3.60887053 5.71131212 1.13671875 2.62890625 C0 1 0 1 0 0 Z " fill="#4E3E7E" transform="translate(53,93)"/>
<path d="M0 0 C3.465 1.485 3.465 1.485 7 3 C7 3.66 7 4.32 7 5 C7.99 5.33 8.98 5.66 10 6 C10.6875 8.0625 10.6875 8.0625 11 10 C9.68 9.34 8.36 8.68 7 8 C7 7.34 7 6.68 7 6 C6.21625 5.7525 5.4325 5.505 4.625 5.25 C1.67682892 3.84610901 1.0975223 2.99324263 0 0 Z " fill="#3E316E" transform="translate(51,89)"/>
<path d="M0 0 C3.80666984 1.44390925 5.26602582 3.34952803 7 7 C6.67 7.66 6.34 8.32 6 9 C1.3125 5.484375 1.3125 5.484375 0 4 C0 2.68 0 1.36 0 0 Z " fill="#584081" transform="translate(35,72)"/>
<path d="M0 0 C0.99 0.495 0.99 0.495 2 1 C2.625 3.5625 2.625 3.5625 3 6 C3.66 6 4.32 6 5 6 C5.33 7.65 5.66 9.3 6 11 C5.67 10.34 5.34 9.68 5 9 C4.01 9 3.02 9 2 9 C0.50178941 5.62902617 0 3.79557881 0 0 Z " fill="#34266D" transform="translate(34,46)"/>
<path d="M0 0 C3.7952131 1.49097658 5.61042731 3.75700849 8 7 C4.65980694 6.40353695 2.49529367 5.31705841 0 3 C0 2.01 0 1.02 0 0 Z " fill="#604C92" transform="translate(50,92)"/>
<path d="M0 0 C1.65 0 3.3 0 5 0 C5 0.66 5 1.32 5 2 C1.52674819 3.1577506 -1.36067448 3.06866652 -5 3 C-5 2.67 -5 2.34 -5 2 C-3.35 2 -1.7 2 0 2 C0 1.34 0 0.68 0 0 Z " fill="#58408C" transform="translate(63,105)"/>
<path d="M0 0 C2 1 4 2 6 3 C5.34 4.32 4.68 5.64 4 7 C0 1.125 0 1.125 0 0 Z " fill="#461EA0" transform="translate(45,82)"/>
<path d="M0 0 C0.66 0.33 1.32 0.66 2 1 C1.25 3.4375 1.25 3.4375 0 6 C-2.125 6.8125 -2.125 6.8125 -4 7 C-1.125 1.125 -1.125 1.125 0 0 Z " fill="#68389C" transform="translate(53,46)"/>
<path d="M0 0 C4.95 0 9.9 0 15 0 C15 0.33 15 0.66 15 1 C10.05 1 5.1 1 0 1 C0 0.67 0 0.34 0 0 Z " fill="#6555BA" transform="translate(56,18)"/>
<path d="M0 0 C0.33 0 0.66 0 1 0 C1 4.62 1 9.24 1 14 C0.67 14 0.34 14 0 14 C0 9.38 0 4.76 0 0 Z " fill="#091B93" transform="translate(38,57)"/>
<path d="M0 0 C0.33 0 0.66 0 1 0 C1 2.64 1 5.28 1 8 C0.67 8 0.34 8 0 8 C0 5.36 0 2.72 0 0 Z " fill="#7F6FBE" transform="translate(108,65)"/>
<path d="M0 0 C0.33 0 0.66 0 1 0 C1 2.64 1 5.28 1 8 C0.67 8 0.34 8 0 8 C0 5.36 0 2.72 0 0 Z " fill="#7E61BE" transform="translate(108,54)"/>
<path d="M0 0 C0.33 0 0.66 0 1 0 C1 2.31 1 4.62 1 7 C0.67 7 0.34 7 0 7 C0 4.69 0 2.38 0 0 Z " fill="#4726D9" transform="translate(88,65)"/>
<path d="M0 0 C0.33 0 0.66 0 1 0 C1 2.31 1 4.62 1 7 C0.67 7 0.34 7 0 7 C0 4.69 0 2.38 0 0 Z " fill="#6C4AD9" transform="translate(88,56)"/>
<path d="M0 0 C2.31 0 4.62 0 7 0 C7 0.33 7 0.66 7 1 C4.69 1 2.38 1 0 1 C0 0.67 0 0.34 0 0 Z " fill="#9F08E7" transform="translate(60,43)"/>
<path d="M0 0 C4 1 4 1 4 1 Z " fill="#9F9F9F" transform="translate(54,108)"/>
<path d="M0 0 C4 1 4 1 4 1 Z " fill="#9F9F9F" transform="translate(65,83)"/>
<path d="M0 0 C0.99 0.495 0.99 0.495 2 1 C1.67 1.66 1.34 2.32 1 3 C0.67 2.01 0.34 1.02 0 0 Z " fill="#003FD4" transform="translate(43,79)"/>
<path d="M0 0 C1 4 1 4 1 4 Z " fill="#7F5FBE" transform="translate(107,73)"/>
<path d="M0 0 C1 4 1 4 1 4 Z " fill="#7E7CDC" transform="translate(82,66)"/>
<path d="M0 0 C1 4 1 4 1 4 Z " fill="#0000FF" transform="translate(83,62)"/>
<path d="M0 0 C1 4 1 4 1 4 Z " fill="#BB7FDA" transform="translate(82,58)"/>
<path d="M0 0 C1 4 1 4 1 4 Z " fill="#7474C9" transform="translate(19,51)"/>
<path d="M0 0 C0.66 0.33 1.32 0.66 2 1 C1.01 1 0.02 1 -1 1 C-0.67 0.67 -0.34 0.34 0 0 Z " fill="#7D43BD" transform="translate(37,26)"/>
<path d="M0 0 C4 1 4 1 4 1 Z " fill="#BB46BB" transform="translate(71,19)"/>
<path d="M0 0 C4 1 4 1 4 1 Z " fill="#BB46BB" transform="translate(52,19)"/>
<path d="M0 0 C3 1 3 1 3 1 Z " fill="#2A7F7F" transform="translate(47,106)"/>
<path d="M0 0 C3 1 3 1 3 1 Z " fill="#0000FF" transform="translate(62,84)"/>
<path d="" fill="#5454A9" transform="translate(0,0)"/>
<path d="" fill="#5454A9" transform="translate(0,0)"/>
<path d="" fill="#994BB5" transform="translate(0,0)"/>
<path d="" fill="#542AA9" transform="translate(0,0)"/>
<path d="" fill="#5454A9" transform="translate(0,0)"/>
<path d="" fill="#7F7FD4" transform="translate(0,0)"/>
<path d="" fill="#7C84D1" transform="translate(0,0)"/>
<path d="" fill="#5454A9" transform="translate(0,0)"/>
<path d="M0 0 C3 1 3 1 3 1 Z " fill="#2A7FD4" transform="translate(67,44)"/>
<path d="M0 0 C3 1 3 1 3 1 Z " fill="#2A7FD4" transform="translate(57,44)"/>
<path d="M0 0 C3 1 3 1 3 1 Z " fill="#7F7FD4" transform="translate(78,21)"/>
<path d="M0 0 C3 1 3 1 3 1 Z " fill="#7F7FD4" transform="translate(46,21)"/>
<path d="M0 0 C3 1 3 1 3 1 Z " fill="#1C718D" transform="translate(75,20)"/>
<path d="M0 0 C3 1 3 1 3 1 Z " fill="#287BFC" transform="translate(49,20)"/>
<path d="M0 0 C2 1 2 1 2 1 Z " fill="#7F7F7F" transform="translate(45,105)"/>
<path d="M0 0 C2 1 2 1 2 1 Z " fill="#BFBFBF" transform="translate(82,104)"/>
<path d="M0 0 C2 1 2 1 2 1 Z " fill="#BFBFBF" transform="translate(43,104)"/>
<path d="" fill="#3F3FBF" transform="translate(0,0)"/>
<path d="" fill="#3D39FA" transform="translate(0,0)"/>
<path d="" fill="#3F3FBF" transform="translate(0,0)"/>
<path d="" fill="#3F3FBF" transform="translate(0,0)"/>
<path d="" fill="#BB46BB" transform="translate(0,0)"/>
<path d="" fill="#3F3FBF" transform="translate(0,0)"/>
<path d="" fill="#3F3FBF" transform="translate(0,0)"/>
<path d="" fill="#3F3FBF" transform="translate(0,0)"/>
<path d="" fill="#2A2AD4" transform="translate(0,0)"/>
<path d="" fill="#3F3FBF" transform="translate(0,0)"/>
<path d="" fill="#3F3FBF" transform="translate(0,0)"/>
<path d="" fill="#3F3FBF" transform="translate(0,0)"/>
<path d="" fill="#3F3FBF" transform="translate(0,0)"/>
<path d="" fill="#BB46BB" transform="translate(0,0)"/>
<path d="" fill="#BFBFBF" transform="translate(0,0)"/>
<path d="" fill="#0000FF" transform="translate(0,0)"/>
<path d="" fill="#3F3FBF" transform="translate(0,0)"/>
<path d="" fill="#3F3FBF" transform="translate(0,0)"/>
<path d="" fill="#0000FF" transform="translate(0,0)"/>
<path d="" fill="#7F7FFF" transform="translate(0,0)"/>
<path d="" fill="#3F00BE" transform="translate(0,0)"/>
<path d="" fill="#BFBFBF" transform="translate(0,0)"/>
<path d="" fill="#2A2AD4" transform="translate(0,0)"/>
<path d="" fill="#7F3F7E" transform="translate(0,0)"/>
<path d="" fill="#BB46BB" transform="translate(0,0)"/>
<path d="" fill="#7F7F7F" transform="translate(0,0)"/>
<path d="M0 0 C2 1 2 1 2 1 Z " fill="#7F7F7F" transform="translate(70,45)"/>
<path d="M0 0 C2 1 2 1 2 1 Z " fill="#BFBFBF" transform="translate(55,45)"/>
<path d="" fill="#7F3F7E" transform="translate(0,0)"/>
<path d="" fill="#BF7FBE" transform="translate(0,0)"/>
<path d="" fill="#3F3F69" transform="translate(0,0)"/>
<path d="" fill="#3F3FBF" transform="translate(0,0)"/>
<path d="" fill="#0000A9" transform="translate(0,0)"/>
<path d="M0 0 C2 1 2 1 2 1 Z " fill="#7F3F7E" transform="translate(53,40)"/>
<path d="M0 0 C2 1 2 1 2 1 Z " fill="#BB46BB" transform="translate(44,22)"/>
<path d="" fill="#7F7F7F" transform="translate(0,0)"/>
<path d="" fill="#F70EF7" transform="translate(0,0)"/>
<path d="" fill="#7F007D" transform="translate(0,0)"/>
<path d="" fill="#7F007D" transform="translate(0,0)"/>
<path d="" fill="#7F007D" transform="translate(0,0)"/>
<path d="" fill="#7F007D" transform="translate(0,0)"/>
<path d="" fill="#7F7F7F" transform="translate(0,0)"/>
<path d="" fill="#7F007D" transform="translate(0,0)"/>
<path d="" fill="#7F7F7F" transform="translate(0,0)"/>
<path d="" fill="#0000FF" transform="translate(0,0)"/>
<path d="" fill="#7F7F7F" transform="translate(0,0)"/>
<path d="" fill="#7F7F7F" transform="translate(0,0)"/>
<path d="" fill="#7F007D" transform="translate(0,0)"/>
<path d="" fill="#7F7F7F" transform="translate(0,0)"/>
<path d="" fill="#7F7F7F" transform="translate(0,0)"/>
<path d="" fill="#5555AA" transform="translate(0,0)"/>
<path d="" fill="#F70EF7" transform="translate(0,0)"/>
<path d="" fill="#000055" transform="translate(0,0)"/>
<path d="" fill="#0000FF" transform="translate(0,0)"/>
<path d="" fill="#0000FF" transform="translate(0,0)"/>
<path d="" fill="#0000FF" transform="translate(0,0)"/>
<path d="" fill="#0000FF" transform="translate(0,0)"/>
<path d="" fill="#7F007D" transform="translate(0,0)"/>
<path d="" fill="#7F7F7F" transform="translate(0,0)"/>
<path d="" fill="#7F7F7F" transform="translate(0,0)"/>
<path d="" fill="#7F7F7F" transform="translate(0,0)"/>
<path d="" fill="#7F007D" transform="translate(0,0)"/>
<path d="" fill="#0000FF" transform="translate(0,0)"/>
<path d="" fill="#7F7F7F" transform="translate(0,0)"/>
<path d="" fill="#7F7F7F" transform="translate(0,0)"/>
<path d="" fill="#000053" transform="translate(0,0)"/>
<path d="" fill="#5555AA" transform="translate(0,0)"/>
<path d="" fill="#F70EF7" transform="translate(0,0)"/>
<path d="" fill="#7F7F7F" transform="translate(0,0)"/>
<path d="" fill="#7A73F6" transform="translate(0,0)"/>
<path d="" fill="#7F7F7F" transform="translate(0,0)"/>
<path d="" fill="#7F007D" transform="translate(0,0)"/>
<path d="" fill="#7F7F7F" transform="translate(0,0)"/>
<path d="" fill="#7F7F7F" transform="translate(0,0)"/>
<path d="" fill="#7F7F7F" transform="translate(0,0)"/>
<path d="" fill="#7F007D" transform="translate(0,0)"/>
<path d="" fill="#000053" transform="translate(0,0)"/>
<path d="" fill="#7F007D" transform="translate(0,0)"/>
<path d="" fill="#000053" transform="translate(0,0)"/>
<path d="" fill="#7F7F7F" transform="translate(0,0)"/>
<path d="" fill="#5555AA" transform="translate(0,0)"/>
<path d="" fill="#7A73F6" transform="translate(0,0)"/>
<path d="" fill="#000053" transform="translate(0,0)"/>
<path d="" fill="#7F7F7F" transform="translate(0,0)"/>
<path d="" fill="#000053" transform="translate(0,0)"/>
<path d="" fill="#7F7F7F" transform="translate(0,0)"/>
<path d="" fill="#000053" transform="translate(0,0)"/>
<path d="" fill="#000053" transform="translate(0,0)"/>
</svg>
