<?xml version="1.0" encoding="UTF-8"?>
<svg version="1.1" xmlns="http://www.w3.org/2000/svg" width="128" height="128">
<path d="M0 0 C42.24 0 84.48 0 128 0 C128 42.24 128 84.48 128 128 C85.76 128 43.52 128 0 128 C0 85.76 0 43.52 0 0 Z " fill="#3A9DE8" transform="translate(0,0)"/>
<path d="M0 0 C10.82313511 7.28101816 18.21597273 16.02511164 21.6328125 28.76953125 C23.82578773 40.22360955 21.62830524 52.3949837 15.390625 62.296875 C7.93999317 72.31797481 -1.14136286 79.05162814 -13.421875 82.046875 C-26.26734565 83.44819907 -37.16818927 81.74494572 -47.83203125 74.05078125 C-58.97949395 65.09414937 -64.48695586 54.59530762 -66.24609375 40.2734375 C-66.7564317 26.86386788 -61.06878043 15.9302266 -52.234375 6.234375 C-38.07663013 -7.40606766 -17.00945242 -9.38773057 0 0 Z " fill="#FBFDFE" transform="translate(85.859375,25.578125)"/>
<path d="M0 0 C2.375 1.5625 2.375 1.5625 3.375 2.5625 C3.46248207 4.48917507 3.48197334 6.41901861 3.47265625 8.34765625 C3.46943359 9.51748047 3.46621094 10.68730469 3.46289062 11.89257812 C3.45032227 13.74012695 3.45032227 13.74012695 3.4375 15.625 C3.43298828 16.86056641 3.42847656 18.09613281 3.42382812 19.36914062 C3.41199608 22.43364117 3.39551173 25.49804721 3.375 28.5625 C2.78726807 28.40241455 2.19953613 28.2423291 1.59399414 28.07739258 C-8.38724237 25.76135915 -18.45186262 27.38679395 -27.625 31.5625 C-30.92835066 32.66361689 -33.52332137 32.76476528 -37 32.8125 C-38.12148438 32.83828125 -39.24296875 32.8640625 -40.3984375 32.890625 C-44.07615036 32.5166203 -45.74945588 31.86769823 -48.625 29.5625 C-49.19262695 26.7434082 -49.19262695 26.7434082 -49.11328125 23.36328125 C-49.09716797 22.15478516 -49.08105469 20.94628906 -49.06445312 19.70117188 C-49.02255859 18.43853516 -48.98066406 17.17589844 -48.9375 15.875 C-48.90366211 13.96364258 -48.90366211 13.96364258 -48.86914062 12.01367188 C-48.81012262 8.8621104 -48.72782975 5.71288721 -48.625 2.5625 C-47.47318237 3.04493164 -47.47318237 3.04493164 -46.2980957 3.53710938 C-37.29496846 6.99067905 -28.87483884 4.19216848 -20.45043945 0.71704102 C-13.36303269 -2.12393889 -7.22744848 -2.86605716 0 0 Z " fill="#3BA1EC" transform="translate(86.625,48.4375)"/>
</svg>
