<?xml version="1.0" encoding="UTF-8"?>
<svg version="1.1" xmlns="http://www.w3.org/2000/svg" width="128" height="128">
<path d="M0 0 C30.36 0 60.72 0 92 0 C91.67 25.08 91.34 50.16 91 76 C60.97 76 30.94 76 0 76 C-1.18418067 72.44745799 -1.07981494 69.70805306 -1.02172852 65.95825195 C-1.01193686 65.23430079 -1.00214521 64.51034964 -0.99205685 63.76446056 C-0.95919573 61.42230035 -0.91918664 59.0803244 -0.87890625 56.73828125 C-0.85756059 55.29179562 -0.83668357 53.845303 -0.81628418 52.39880371 C-0.73737222 47.03661583 -0.64938451 41.67456462 -0.5625 36.3125 C-0.376875 24.329375 -0.19125 12.34625 0 0 Z " fill="#FDFCFB" transform="translate(19,26)"/>
<path d="M0 0 C30.36 0 60.72 0 92 0 C91.67 25.08 91.34 50.16 91 76 C60.97 76 30.94 76 0 76 C-1.18418067 72.44745799 -1.07981494 69.70805306 -1.02172852 65.95825195 C-1.01193686 65.23430079 -1.00214521 64.51034964 -0.99205685 63.76446056 C-0.95919573 61.42230035 -0.91918664 59.0803244 -0.87890625 56.73828125 C-0.85756059 55.29179562 -0.83668357 53.845303 -0.81628418 52.39880371 C-0.73737222 47.03661583 -0.64938451 41.67456462 -0.5625 36.3125 C-0.376875 24.329375 -0.19125 12.34625 0 0 Z M46.4375 4.8125 C36.06145147 6.4214397 25.68262669 7.84380699 15.25170898 9.0480957 C13.8393396 9.21571411 13.8393396 9.21571411 12.3984375 9.38671875 C11.57005371 9.48170654 10.74166992 9.57669434 9.88818359 9.67456055 C7.99352817 9.81422877 7.99352817 9.81422877 7 11 C6.88523752 12.82465801 6.84035526 14.65375253 6.82299805 16.48193359 C6.81016281 17.65339935 6.79732758 18.82486511 6.78410339 20.03182983 C6.77671646 21.30781036 6.76932953 22.58379089 6.76171875 23.8984375 C6.753647 25.19947418 6.74557526 26.50051086 6.73725891 27.8409729 C6.72221928 30.60003532 6.71238718 33.35907185 6.70483398 36.11816406 C6.69376554 39.65488759 6.65936628 43.19098257 6.61966228 46.72748375 C6.58725607 50.0969439 6.58272226 53.46633348 6.57421875 56.8359375 C6.55671066 58.10786957 6.53920258 59.37980164 6.52116394 60.6902771 C6.52408951 61.86804718 6.52701508 63.04581726 6.5300293 64.25927734 C6.52416306 65.29772797 6.51829681 66.33617859 6.51225281 67.40609741 C6.7843212 70.07023146 6.7843212 70.07023146 8.61581421 71.83255005 C11.7483328 73.36643163 14.12927336 73.39512278 17.61694336 73.41992188 C18.2727388 73.42839142 18.92853424 73.43686096 19.60420227 73.44558716 C21.76628148 73.4689352 23.92764815 73.46997994 26.08984375 73.46875 C27.59672835 73.47585291 29.10361024 73.4835521 30.61048889 73.49182129 C33.76701376 73.50526096 36.92328853 73.50683727 40.07983398 73.50097656 C44.11979894 73.49508044 48.15856213 73.52566885 52.19829464 73.56609344 C55.30992569 73.59197585 58.42126755 73.59484746 61.53299141 73.59120178 C63.02212101 73.59289253 64.51126402 73.60253087 66.00028801 73.62034607 C68.08555807 73.64255007 70.1683985 73.63283181 72.25366211 73.61523438 C73.43850693 73.61728882 74.62335175 73.61934326 75.84410095 73.62145996 C79.98045657 72.80692839 81.45937718 71.31155365 84 68 C84.73938002 65.65973108 84.73938002 65.65973108 84.64697266 63.19726562 C84.66273346 62.2728064 84.67849426 61.34834717 84.69473267 60.39587402 C84.67955093 58.91601013 84.67955093 58.91601013 84.6640625 57.40625 C84.66884613 56.38196899 84.67362976 55.35768799 84.67855835 54.30236816 C84.68195514 52.14052796 84.67276828 49.97863625 84.65185547 47.81689453 C84.62508807 44.5108774 84.65161217 41.20825547 84.68359375 37.90234375 C84.68028961 35.79947168 84.67388331 33.69660173 84.6640625 31.59375 C84.67418365 30.60717407 84.68430481 29.62059814 84.69473267 28.60412598 C84.67897186 27.67966675 84.66321106 26.75520752 84.64697266 25.80273438 C84.64299469 24.99396851 84.63901672 24.18520264 84.63491821 23.35192871 C83.66721979 19.76728166 81.89700169 18.25342863 79 16 C75.84461379 15.2822327 75.84461379 15.2822327 72.3737793 15.43237305 C71.72931351 15.43164291 71.08484772 15.43091278 70.42085266 15.43016052 C68.30443211 15.43362609 66.19025152 15.47242973 64.07421875 15.51171875 C62.60164085 15.52105076 61.12904737 15.52816504 59.65644836 15.53315735 C55.79105346 15.55219726 51.92660633 15.60127011 48.06158447 15.65667725 C44.11345235 15.70793587 40.16516623 15.73068537 36.21679688 15.75585938 C28.47743371 15.80939351 20.73884994 15.8946676 13 16 C12.67 14.68 12.34 13.36 12 12 C30.81 12 49.62 12 69 12 C69 9.36 69 6.72 69 4 C67.78980147 2.56531072 67.78980147 2.56531072 64.22265625 2.82421875 C58.20797417 2.89419829 52.3658505 3.86319456 46.4375 4.8125 Z " fill="#EC4D2E" transform="translate(19,26)"/>
<path d="M0 0 C22.11 0 44.22 0 67 0 C65.68 0.66 64.36 1.32 63 2 C62.05495605 2.52702515 62.05495605 2.52702515 61.09082031 3.06469727 C58.568655 4.19295688 56.28173229 4.57063216 53.546875 4.96484375 C52.44988281 5.12533203 51.35289063 5.28582031 50.22265625 5.45117188 C49.07667969 5.61166016 47.93070313 5.77214844 46.75 5.9375 C45.68136719 6.09412109 44.61273438 6.25074219 43.51171875 6.41210938 C31.6974876 8.11438952 19.84610077 9.54012166 8 11 C7.93056283 18.6580332 7.87722087 26.31603387 7.84456348 33.97430992 C7.82889136 37.53018671 7.80762556 41.08584852 7.77368164 44.64160156 C7.73492241 48.72723482 7.72030367 52.81264141 7.70703125 56.8984375 C7.69154739 58.17866791 7.67606354 59.45889832 7.66011047 60.77792358 C7.65988388 61.95899689 7.65965729 63.14007019 7.65942383 64.35693359 C7.65276199 65.40062103 7.64610016 66.44430847 7.63923645 67.5196228 C7.75828842 68.33814728 7.87734039 69.15667175 8 70 C11.58368547 72.38912365 13.22995899 72.27088134 17.4909668 72.31884766 C18.47185776 72.33391609 18.47185776 72.33391609 19.4725647 72.34928894 C21.63144054 72.38015014 23.79019221 72.39716381 25.94921875 72.4140625 C27.4470985 72.43277183 28.94496768 72.45234507 30.44282532 72.4727478 C34.3833697 72.52410001 38.32394827 72.56370905 42.26464844 72.60089111 C46.28654457 72.64091149 50.30829813 72.69201278 54.33007812 72.7421875 C62.21995473 72.83898331 70.10990183 72.92337626 78 73 C77.505 74.485 77.505 74.485 77 76 C51.59 76 26.18 76 0 76 C-1.18418067 72.44745799 -1.07981494 69.70805306 -1.02172852 65.95825195 C-1.01212097 65.24580322 -1.00251343 64.53335449 -0.99261475 63.79931641 C-0.95964616 61.44553681 -0.91930578 59.09194406 -0.87890625 56.73828125 C-0.85460304 55.1058976 -0.83075957 53.47350705 -0.80735779 51.84111023 C-0.74453689 47.54531996 -0.67546458 43.24965198 -0.60510254 38.95397949 C-0.52196975 33.79950844 -0.44657954 28.64491907 -0.36989594 23.49034882 C-0.25253788 15.66012567 -0.12532816 7.83011791 0 0 Z " fill="#ED5538" transform="translate(19,26)"/>
<path d="M0 0 C1.15435547 -0.00386719 1.15435547 -0.00386719 2.33203125 -0.0078125 C4.1875 0.125 4.1875 0.125 5.1875 1.125 C5.1875 3.765 5.1875 6.405 5.1875 9.125 C-13.2925 9.125 -31.7725 9.125 -50.8125 9.125 C-47.1916474 5.5041474 -44.47836366 5.34034862 -39.63671875 4.7734375 C-38.83393997 4.66907379 -38.03116119 4.56471008 -37.20405579 4.45718384 C-34.63740273 4.12609826 -32.068955 3.81267124 -29.5 3.5 C-26.9423847 3.17617193 -24.38523691 2.84881192 -21.82807922 2.52139282 C-20.23794907 2.31918411 -18.64745623 2.11980105 -17.05656433 1.92367554 C-1.45936936 -0.0049723 -1.45936936 -0.0049723 0 0 Z " fill="#FDF9F6" transform="translate(82.8125,28.875)"/>
<path d="M0 0 C3.4375 2 3.4375 2 6 4 C5.67 4.99 5.34 5.98 5 7 C3.9790625 6.505 3.9790625 6.505 2.9375 6 C-0.59199518 4.79846973 -3.2934027 4.65679655 -7 5 C-9.04451019 6.04374022 -9.04451019 6.04374022 -10 8 C-10.25069913 10.62570704 -10.25069913 10.62570704 -10 13 C-9.43152344 13.17015625 -8.86304688 13.3403125 -8.27734375 13.515625 C4.31104856 17.46657284 4.31104856 17.46657284 8 23 C8.60203459 26.09121605 8.60109238 28.90789414 8 32 C5.38095976 35.29058901 3.91569311 36.61130865 -0.15625 37.4375 C-5.85845561 37.74994962 -9.33981039 36.17289505 -14 33 C-14 31.68 -14 30.36 -14 29 C-13.236875 29.309375 -12.47375 29.61875 -11.6875 29.9375 C-7.20211053 31.71079351 -3.8493586 32.34638276 1 32 C3.10938785 30.97578739 3.10938785 30.97578739 4 29 C4.07272562 26.44539786 4.07272562 26.44539786 3 24 C-0.50094445 20.92293672 -4.33438198 19.62368169 -8.66015625 18.0625 C-11.07846333 16.96437058 -12.40365061 16.11146532 -14 14 C-14.39916548 10.90646756 -14.63472337 8.96011901 -14 6 C-9.68469398 0.66264781 -6.80323696 -0.56693641 0 0 Z " fill="#E45536" transform="translate(68,52)"/>
<path d="M0 0 C0.33 0 0.66 0 1 0 C1 23.76 1 47.52 1 72 C2.65 72 4.3 72 6 72 C6 72.33 6 72.66 6 73 C29.1 73.33 52.2 73.66 76 74 C76 74.33 76 74.66 76 75 C50.59 75 25.18 75 -1 75 C-2.07806518 71.76580447 -2.09176317 69.52487952 -2.03759766 66.12670898 C-2.02072906 64.91792587 -2.00386047 63.70914276 -1.98648071 62.46372986 C-1.9625827 61.15440994 -1.93868469 59.84509003 -1.9140625 58.49609375 C-1.89227176 57.13428778 -1.87082316 55.77247629 -1.84970093 54.41065979 C-1.8041872 51.55161923 -1.75498894 48.69267247 -1.703125 45.83374023 C-1.63733723 42.19499956 -1.57984434 38.55618747 -1.52509499 34.91726589 C-1.48189789 32.10053478 -1.43455938 29.28388457 -1.38599777 26.46724129 C-1.35236794 24.48116062 -1.32185193 22.495028 -1.29141235 20.50889587 C-1.16178526 13.62364675 -0.83992309 6.83718262 0 0 Z " fill="#F87051" transform="translate(20,27)"/>
<path d="M0 0 C30.03 0 60.06 0 91 0 C91 0.33 91 0.66 91 1 C60.97 1 30.94 1 0 1 C0 0.67 0 0.34 0 0 Z " fill="#FF7E00" transform="translate(19,24)"/>
<path d="M0 0 C29.7 0 59.4 0 90 0 C90 0.33 90 0.66 90 1 C60.3 1 30.6 1 0 1 C0 0.67 0 0.34 0 0 Z " fill="#FF0000" transform="translate(19,103)"/>
<path d="M0 0 C0.33 0 0.66 0 1 0 C1 24.42 1 48.84 1 74 C0.67 74 0.34 74 0 74 C0 49.58 0 25.16 0 0 Z " fill="#FF7F00" transform="translate(111,27)"/>
<path d="M0 0 C0.33 0 0.66 0 1 0 C1 24.09 1 48.18 1 73 C0.67 73 0.34 73 0 73 C0 48.91 0 24.82 0 0 Z " fill="#FF0000" transform="translate(16,27)"/>
<path d="M0 0 C0.639375 0.28875 1.27875 0.5775 1.9375 0.875 C5.88410292 2.3247725 9.8874607 3.15778062 14 4 C14 4.66 14 5.32 14 6 C14.66 6 15.32 6 16 6 C16 6.66 16 7.32 16 8 C9.34454208 8.54330269 5.54165256 7.77304004 0 4 C0 2.68 0 1.36 0 0 Z " fill="#EA4D2F" transform="translate(54,81)"/>
<path d="M0 0 C-0.33 0.99 -0.66 1.98 -1 3 C-6 1 -6 1 -11 -1 C-11 -1.33 -11 -1.66 -11 -2 C-6.17200184 -3.2350693 -4.02892196 -2.96244261 0 0 Z " fill="#E15234" transform="translate(74,56)"/>
<path d="M0 0 C1.32 0 2.64 0 4 0 C4 0.66 4 1.32 4 2 C4.66 2 5.32 2 6 2 C6 2.66 6 3.32 6 4 C3.03 4 0.06 4 -3 4 C-2.01 3.67 -1.02 3.34 0 3 C0 2.01 0 1.02 0 0 Z " fill="#EE674C" transform="translate(64,85)"/>
<path d="M0 0 C2.9719385 1.12451727 5.33440687 2.22293791 8 4 C5.69 4.33 3.38 4.66 1 5 C0.34 3.68 -0.32 2.36 -1 1 C-0.67 0.67 -0.34 0.34 0 0 Z " fill="#E4593E" transform="translate(54,81)"/>
</svg>
